<svg width="64" height="65" viewBox="0 0 64 65" fill="none" xmlns="http://www.w3.org/2000/svg">
<circle cx="32" cy="32.5" r="31.5" stroke="#FA7126" stroke-dasharray="2 2"/>
<path d="M38.6128 41.8794C40.7446 40.6019 42.5225 38.7877 43.7819 36.6106H50.234C47.5814 44.3806 40.1118 50 31.3141 50C22.5163 50 15.0468 44.3806 12.3941 36.6106H18.8462C20.1057 38.7877 21.8836 40.6019 24.0153 41.8794C26.2309 43.2071 28.7492 43.9071 31.3141 43.9071C33.879 43.9071 36.3972 43.2071 38.6128 41.8794Z" stroke="#FA7126"/>
<mask id="path-3-inside-1_1001_9601" fill="white">
<path d="M51.1515 30.1697H50.8796C50.1774 27.0597 48.7667 24.1669 46.7644 21.7308C44.7621 19.2948 42.2257 17.3855 39.3653 16.1611V22.8268C39.3653 23.2057 39.2194 23.569 38.9595 23.8368C38.6997 24.1047 38.3473 24.2552 37.9799 24.2552C37.6125 24.2552 37.2601 24.1047 37.0003 23.8368C36.7405 23.569 36.5945 23.2057 36.5945 22.8268V15.1772C34.9124 14.7256 33.1811 14.4981 31.4428 14.5C29.7544 14.5013 28.0725 14.7162 26.4349 15.1401V22.8268C26.4349 23.2057 26.2889 23.569 26.0291 23.8368C25.7693 24.1047 25.4169 24.2552 25.0495 24.2552C24.682 24.2552 24.3296 24.1047 24.0698 23.8368C23.81 23.569 23.664 23.2057 23.664 22.8268V16.0977C20.7677 17.3075 18.1959 19.2174 16.1653 21.6664C14.1346 24.1154 12.7046 27.0317 11.9958 30.1697H11.8676C11.3999 30.1684 10.9489 30.3485 10.6041 30.6743C10.2593 31.0001 10.0461 31.4477 10.0066 31.9281C9.96721 32.4086 10.1045 32.8867 10.3913 33.2676C10.6781 33.6485 11.0933 33.9042 11.5546 33.9839C11.658 34.0026 11.7626 34.0132 11.8676 34.0157H51.3311C51.8036 33.9647 52.2394 33.7295 52.5493 33.3582C52.8592 32.9869 53.0197 32.5076 52.9981 32.0183C52.9764 31.529 52.7743 31.0667 52.4329 30.726C52.0916 30.3853 51.6368 30.1919 51.1618 30.1855"/>
</mask>
<path d="M50.8796 30.1697L49.9041 30.3899L50.0802 31.1697H50.8796V30.1697ZM39.3653 16.1611L39.7588 15.2418L38.3653 14.6454V16.1611H39.3653ZM39.3653 22.8268H38.3653H39.3653ZM36.5945 22.8268H37.5945H36.5945ZM36.5945 15.1772H37.5945V14.4102L36.8537 14.2113L36.5945 15.1772ZM31.4428 14.5L31.4436 15.5L31.444 15.5L31.4428 14.5ZM26.4349 15.1401L26.1843 14.172L25.4349 14.366V15.1401H26.4349ZM23.664 16.0977H24.664V14.5962L23.2786 15.1749L23.664 16.0977ZM11.9958 30.1697V31.1697H12.7952L12.9713 30.39L11.9958 30.1697ZM11.8676 30.1697L11.8648 31.1697H11.8676V30.1697ZM11.5546 33.9839L11.7323 32.9998L11.7249 32.9985L11.5546 33.9839ZM11.8676 34.0157L11.8442 35.0154L11.8559 35.0157H11.8676V34.0157ZM51.3311 34.0157V35.0157H51.3849L51.4383 35.0099L51.3311 34.0157ZM51.1515 29.1697H50.8796V31.1697H51.1515V29.1697ZM51.855 29.9494C51.1189 26.689 49.6395 23.6538 47.5369 21.0958L45.9919 22.3658C47.894 24.68 49.2359 27.4303 49.9041 30.3899L51.855 29.9494ZM47.5369 21.0958C45.4343 18.5377 42.7686 16.5301 39.7588 15.2418L38.9718 17.0805C41.6829 18.2409 44.0899 20.0518 45.9919 22.3658L47.5369 21.0958ZM38.3653 16.1611V22.8268H40.3653V16.1611H38.3653ZM38.3653 22.8268C38.3653 22.9501 38.3175 23.0624 38.2417 23.1406L39.6774 24.5331C40.1212 24.0755 40.3653 23.4612 40.3653 22.8268H38.3653ZM38.2417 23.1406C38.1669 23.2177 38.0721 23.2552 37.9799 23.2552V25.2552C38.6226 25.2552 39.2325 24.9917 39.6774 24.5331L38.2417 23.1406ZM37.9799 23.2552C37.8877 23.2552 37.7929 23.2177 37.7181 23.1406L36.2825 24.5331C36.7273 24.9917 37.3373 25.2552 37.9799 25.2552V23.2552ZM37.7181 23.1406C37.6423 23.0624 37.5945 22.9501 37.5945 22.8268H35.5945C35.5945 23.4612 35.8386 24.0755 36.2825 24.5331L37.7181 23.1406ZM37.5945 22.8268V15.1772H35.5945V22.8268H37.5945ZM36.8537 14.2113C35.0869 13.7371 33.268 13.498 31.4417 13.5L31.444 15.5C33.0941 15.4982 34.7378 15.7142 36.3353 16.143L36.8537 14.2113ZM31.4421 13.5C29.6692 13.5013 27.9033 13.7271 26.1843 14.172L26.6854 16.1082C28.2416 15.7054 29.8396 15.5012 31.4436 15.5L31.4421 13.5ZM25.4349 15.1401V22.8268H27.4349V15.1401H25.4349ZM25.4349 22.8268C25.4349 22.9501 25.3871 23.0624 25.3113 23.1406L26.7469 24.5331C27.1907 24.0755 27.4349 23.4612 27.4349 22.8268H25.4349ZM25.3113 23.1406C25.2365 23.2177 25.1416 23.2552 25.0495 23.2552V25.2552C25.6921 25.2552 26.3021 24.9917 26.7469 24.5331L25.3113 23.1406ZM25.0495 23.2552C24.9573 23.2552 24.8624 23.2177 24.7876 23.1406L23.352 24.5331C23.7968 24.9917 24.4068 25.2552 25.0495 25.2552V23.2552ZM24.7876 23.1406C24.7118 23.0624 24.664 22.9501 24.664 22.8268H22.664C22.664 23.4612 22.9082 24.0755 23.352 24.5331L24.7876 23.1406ZM24.664 22.8268V16.0977H22.664V22.8268H24.664ZM23.2786 15.1749C20.231 16.448 17.5279 18.4564 15.3955 21.0281L16.935 22.3047C18.8639 19.9785 21.3045 18.1671 24.0495 17.0204L23.2786 15.1749ZM15.3955 21.0281C13.2632 23.5997 11.7635 26.6596 11.0204 29.9493L12.9713 30.39C13.6458 27.4038 15.0061 24.6311 16.935 22.3047L15.3955 21.0281ZM11.9958 29.1697H11.8676V31.1697H11.9958V29.1697ZM11.8703 29.1697C11.1422 29.1677 10.4454 29.4484 9.9173 29.9475L11.2909 31.4011C11.4523 31.2486 11.6576 31.1691 11.8648 31.1696L11.8703 29.1697ZM9.9173 29.9475C9.39003 30.4457 9.06922 31.1244 9.00998 31.8463L11.0033 32.0099C11.0229 31.7709 11.1287 31.5545 11.2909 31.4011L9.9173 29.9475ZM9.00998 31.8463C8.95076 32.5681 9.15641 33.29 9.59244 33.8691L11.1902 32.6661C11.0526 32.4834 10.9837 32.249 11.0033 32.0099L9.00998 31.8463ZM9.59244 33.8691C10.0291 34.449 10.6671 34.8453 11.3842 34.9693L11.7249 32.9985C11.5195 32.963 11.3271 32.8479 11.1902 32.6661L9.59244 33.8691ZM11.3768 34.968C11.5312 34.9959 11.6874 35.0117 11.8442 35.0154L11.8909 33.0159C11.8378 33.0147 11.7848 33.0093 11.7323 32.9998L11.3768 34.968ZM51.4383 35.0099C52.1735 34.9306 52.8444 34.5654 53.317 33.999L51.7815 32.7175C51.6345 32.8937 51.4338 32.9988 51.2239 33.0214L51.4383 35.0099ZM53.317 33.999C53.789 33.4335 54.0296 32.7091 53.9971 31.9741L51.999 32.0624C52.0098 32.3061 51.9293 32.5404 51.7815 32.7175L53.317 33.999ZM53.9971 31.9741C53.9646 31.2391 53.6609 30.5387 53.1393 30.0182L51.7265 31.4338C51.8877 31.5946 51.9883 31.8188 51.999 32.0624L53.9971 31.9741ZM53.1393 30.0182C52.6169 29.4968 51.9149 29.1956 51.1753 29.1856L51.1483 31.1854C51.3588 31.1883 51.5662 31.2738 51.7265 31.4338L53.1393 30.0182ZM11.8676 35.0157H51.3311V33.0157H11.8676V35.0157Z" fill="#5F236B" mask="url(#path-3-inside-1_1001_9601)"/>
<mask id="path-5-inside-2_1001_9601" fill="white">
<path d="M40.7574 57.5656C40.8391 57.7995 41.0951 57.9232 41.3276 57.8376C44.9124 56.518 48.178 54.452 50.9074 51.7746C53.7435 48.9925 55.9308 45.6187 57.3131 41.894C58.6954 38.1693 59.2386 34.1854 58.9041 30.2266C58.5696 26.2677 57.3655 22.4315 55.3778 18.9916C53.3901 15.5516 50.6677 12.5927 47.4049 10.3259C44.1421 8.05916 40.4192 6.54039 36.5019 5.87796C32.5845 5.21552 28.5693 5.42576 24.7426 6.49366C21.0599 7.52135 17.6393 9.31895 14.7058 11.7657C14.5155 11.9244 14.4949 12.208 14.6567 12.3956C14.8186 12.5832 15.1016 12.6038 15.292 12.4452C18.1254 10.0846 21.4283 8.3501 24.9837 7.35791C28.6833 6.32549 32.5651 6.12224 36.3523 6.76266C40.1394 7.40308 43.7386 8.87138 46.893 11.0628C50.0474 13.2543 52.6793 16.1148 54.6009 19.4405C56.5226 22.7661 57.6866 26.4748 58.01 30.3021C58.3334 34.1294 57.8082 37.9809 56.4719 41.5818C55.1355 45.1828 53.021 48.4444 50.279 51.1341C47.6439 53.719 44.4918 55.7144 41.0316 56.9905C40.7992 57.0762 40.6756 57.3317 40.7574 57.5656Z"/>
</mask>
<path d="M40.7574 57.5656C40.8391 57.7995 41.0951 57.9232 41.3276 57.8376C44.9124 56.518 48.178 54.452 50.9074 51.7746C53.7435 48.9925 55.9308 45.6187 57.3131 41.894C58.6954 38.1693 59.2386 34.1854 58.9041 30.2266C58.5696 26.2677 57.3655 22.4315 55.3778 18.9916C53.3901 15.5516 50.6677 12.5927 47.4049 10.3259C44.1421 8.05916 40.4192 6.54039 36.5019 5.87796C32.5845 5.21552 28.5693 5.42576 24.7426 6.49366C21.0599 7.52135 17.6393 9.31895 14.7058 11.7657C14.5155 11.9244 14.4949 12.208 14.6567 12.3956C14.8186 12.5832 15.1016 12.6038 15.292 12.4452C18.1254 10.0846 21.4283 8.3501 24.9837 7.35791C28.6833 6.32549 32.5651 6.12224 36.3523 6.76266C40.1394 7.40308 43.7386 8.87138 46.893 11.0628C50.0474 13.2543 52.6793 16.1148 54.6009 19.4405C56.5226 22.7661 57.6866 26.4748 58.01 30.3021C58.3334 34.1294 57.8082 37.9809 56.4719 41.5818C55.1355 45.1828 53.021 48.4444 50.279 51.1341C47.6439 53.719 44.4918 55.7144 41.0316 56.9905C40.7992 57.0762 40.6756 57.3317 40.7574 57.5656Z" stroke="#FA7126" stroke-width="2" mask="url(#path-5-inside-2_1001_9601)"/>
<mask id="path-6-inside-3_1001_9601" fill="white">
<path d="M13.2253 13.7253C13.0501 13.5501 12.7658 13.5499 12.5935 13.728C10.2342 16.167 8.35487 19.03 7.05525 22.1675C5.75563 25.3051 5.06011 28.6584 5.00373 32.0514C4.99961 32.2991 5.20086 32.5 5.44863 32.5C5.6964 32.5 5.89686 32.2991 5.90112 32.0514C5.95741 28.7763 6.62969 25.5396 7.88422 22.5109C9.13875 19.4822 10.952 16.7182 13.2281 14.3625C13.4002 14.1844 13.4005 13.9006 13.2253 13.7253Z"/>
</mask>
<path d="M13.2253 13.7253C13.0501 13.5501 12.7658 13.5499 12.5935 13.728C10.2342 16.167 8.35487 19.03 7.05525 22.1675C5.75563 25.3051 5.06011 28.6584 5.00373 32.0514C4.99961 32.2991 5.20086 32.5 5.44863 32.5C5.6964 32.5 5.89686 32.2991 5.90112 32.0514C5.95741 28.7763 6.62969 25.5396 7.88422 22.5109C9.13875 19.4822 10.952 16.7182 13.2281 14.3625C13.4002 14.1844 13.4005 13.9006 13.2253 13.7253Z" stroke="#FA7126" stroke-width="2" mask="url(#path-6-inside-3_1001_9601)"/>
<mask id="path-7-inside-4_1001_9601" fill="white">
<path d="M37.5371 58.4676C37.5887 58.7099 37.8272 58.8649 38.0686 58.8092C38.4582 58.7193 38.8458 58.6208 39.2311 58.5137C39.4698 58.4473 39.6053 58.1973 39.535 57.9598C39.4646 57.7222 39.2151 57.587 38.9764 57.6532C38.6135 57.7538 38.2484 57.8466 37.8815 57.9315C37.64 57.9873 37.4854 58.2253 37.5371 58.4676Z"/>
</mask>
<path d="M37.5371 58.4676C37.5887 58.7099 37.8272 58.8649 38.0686 58.8092C38.4582 58.7193 38.8458 58.6208 39.2311 58.5137C39.4698 58.4473 39.6053 58.1973 39.535 57.9598C39.4646 57.7222 39.2151 57.587 38.9764 57.6532C38.6135 57.7538 38.2484 57.8466 37.8815 57.9315C37.64 57.9873 37.4854 58.2253 37.5371 58.4676Z" stroke="#FA7126" stroke-width="2" mask="url(#path-7-inside-4_1001_9601)"/>
<rect x="3" y="25.5" width="5" height="14" rx="2.5" fill="#5F236B"/>
<rect x="36" y="57.5" width="3" height="7" rx="1.5" transform="rotate(90 36 57.5)" fill="#5F236B"/>
<rect x="56" y="25.5" width="5" height="14" rx="2.5" fill="#5F236B"/>
</svg>
