<svg width="64" height="64" viewBox="0 0 64 64" fill="none" xmlns="http://www.w3.org/2000/svg">
<circle cx="32" cy="32" r="31.5" stroke="#FA7126" stroke-dasharray="2 2"/>
<path d="M53.7223 48.9814V46.9543C53.7223 45.8339 52.7737 44.9272 51.6014 44.9272H43.1175C41.9452 44.9272 40.9966 45.8339 40.9966 46.9543V48.9814H53.7223Z" fill="#5F236B"/>
<path d="M24.029 29.232V28.1111C24.029 27.5588 23.5813 27.1111 23.029 27.1111H19.9387C19.3864 27.1111 18.9387 27.5588 18.9387 28.1111V29.232" stroke="#5F236B"/>
<path d="M27.4225 30.1089C25.7233 29.3059 23.9784 28.8079 22.3322 28.8079C15.5383 28.8079 13 33.5558 13 39.4127C13 41.5173 13.6564 43.2597 14.8128 44.6284M31.2402 32.2014C36.7547 36.0191 37.6031 39.3561 37.6031 40.6852C37.6031 46.5421 31.6713 48.3207 24.8774 48.3207C23.5784 48.3207 22.3419 48.2091 21.1915 47.9878M29.1193 30.9288C29.3763 31.0902 29.7165 31.1813 29.9677 31.353" stroke="#FA7126" stroke-linecap="round"/>
<path d="M30.392 29.2321L33.3614 23.7176C33.7856 22.8692 34.2098 20.9179 32.513 19.8999C30.8162 18.8818 24.1706 16.6477 21.0598 15.658C20.0701 15.2338 18.345 13.8763 19.3631 11.8402C20.3811 9.80411 22.3323 9.86067 23.1807 10.1435L37.179 14.8095C39.2999 15.6579 40.7422 17.5244 41.4209 19.8999C42.0996 22.2753 45.9456 38.5643 47.7838 45.7755" stroke="#5F236B" stroke-width="2" stroke-linecap="round"/>
<circle cx="17.2419" cy="44.9272" r="3.74192" fill="#5F236B" stroke="#5F236B"/>
</svg>
