<svg width="64" height="65" viewBox="0 0 64 65" fill="none" xmlns="http://www.w3.org/2000/svg">
<circle cx="32" cy="32.5" r="31.5" stroke="#FA7126" stroke-dasharray="2 2"/>
<path d="M37.4817 31.7134C41.2929 34.8457 45.4478 37.9532 48.1399 40.1838C48.6475 40.5871 49.7372 41.7943 48.6257 43.1929C47.5596 44.5344 46.5755 44.2899 46.3207 44.3451L39.6721 39.0613L38.7103 40.2716L45.2963 45.5057C44.5263 46.8684 42.1785 48.952 40.182 47.3653C38.1855 45.7786 35.7443 43.8385 33.9584 42.4192L33.1689 43.4126L39.4132 48.3751C38.5691 50.0199 35.9926 49.9599 35.6141 49.6592C35.2357 49.3584 31.7877 46.6182 30.8416 45.8663L31.09 48.0384L33.5106 49.9621C31.5826 51.0629 29.7559 50.2694 29.0835 49.7351M26.5884 24.7138C25.0409 24.0105 21.723 24.7975 20.2575 25.2789C18.8507 28.0201 15.8684 33.8315 15.1932 35.1473C14.518 36.4631 14.1566 37.8721 15.1678 38.6757L17.3841 40.4371" stroke="#FA7126" stroke-linecap="round" stroke-linejoin="round"/>
<path d="M46.4155 22.8327C45.8466 21.973 46.0825 20.8149 46.9422 20.246L50.0557 18.1861L58.8105 31.4182L55.6971 33.4782C54.8373 34.047 53.6792 33.8112 53.1104 32.9514L46.4155 22.8327Z" fill="#5F236B"/>
<circle cx="54.9599" cy="30.4601" r="1.41446" transform="rotate(-33.4899 54.9599 30.4601)" fill="white"/>
<path d="M12.1064 34.9227C11.6353 35.8397 10.5101 36.2011 9.59311 35.73L6.27249 34.024L13.5231 19.9113L16.8437 21.6174C17.7606 22.0885 18.1221 23.2137 17.651 24.1307L12.1064 34.9227Z" fill="#5F236B"/>
<circle cx="14.9585" cy="23.4586" r="1.4546" transform="rotate(-152.808 14.9585 23.4586)" fill="white"/>
<rect x="19.5634" y="38.2389" width="3.06127" height="4.0919" rx="1.53063" transform="rotate(38.4751 19.5634 38.2389)" stroke="#FA7126"/>
<rect x="22.6252" y="39.3557" width="4.0919" height="6.15317" rx="1.91432" transform="rotate(38.4751 22.6252 39.3557)" stroke="#FA7126"/>
<rect x="25.853" y="41.9208" width="4.0919" height="7.1838" rx="1.91432" transform="rotate(38.4751 25.853 41.9208)" stroke="#FA7126"/>
<rect x="29.08" y="44.4857" width="3.06127" height="5.12254" rx="1.53063" transform="rotate(38.4751 29.08 44.4857)" stroke="#FA7126"/>
<path d="M47.1481 39.1194C48.1667 37.8377 48.9052 36.9085 49.822 35.7549C50.7387 34.6014 50.6432 34.0549 50.4808 33.9259L44.0048 24.0739C42.4862 23.6513 39.1778 22.7473 38.0929 22.5124C37.0079 22.2775 35.5779 22.3435 34.9985 22.4059C33.7475 22.9801 30.995 24.2431 29.9941 24.7025C28.9933 25.1618 28.5588 26.1758 28.4665 26.6253C27.6231 29.3532 25.8809 35.0789 25.6594 36.1576C25.4379 37.2364 25.9619 37.4437 26.2516 37.4125C29.3461 37.5192 30.7686 34.7286 30.7686 34.7286C30.7686 34.7286 31.1506 34.2479 32.1531 27.9867L33.8911 27.7995L33.9961 28.6672M35.6145 30.3258L35.8769 30.5343" stroke="#FA7126" stroke-linecap="round" stroke-linejoin="round"/>
</svg>
