<svg width="64" height="64" viewBox="0 0 64 64" fill="none" xmlns="http://www.w3.org/2000/svg">
<circle cx="32" cy="32" r="31.5" stroke="#FA7126" stroke-dasharray="2 2"/>
<path d="M14 12V11.5C13.7239 11.5 13.5 11.7239 13.5 12H14ZM43 12H43.5C43.5 11.7239 43.2761 11.5 43 11.5V12ZM43 50V50.5C43.2761 50.5 43.5 50.2761 43.5 50H43ZM14 50H13.5C13.5 50.2761 13.7239 50.5 14 50.5V50ZM42.5 16.5C42.5 16.7761 42.7239 17 43 17C43.2761 17 43.5 16.7761 43.5 16.5H42.5ZM43.5 18C43.5 17.7239 43.2761 17.5 43 17.5C42.7239 17.5 42.5 17.7239 42.5 18H43.5ZM42.5 18.5C42.5 18.7761 42.7239 19 43 19C43.2761 19 43.5 18.7761 43.5 18.5H42.5ZM43.5 20C43.5 19.7239 43.2761 19.5 43 19.5C42.7239 19.5 42.5 19.7239 42.5 20H43.5ZM14 12.5H43V11.5H14V12.5ZM43 49.5H14V50.5H43V49.5ZM14.5 50V12H13.5V50H14.5ZM42.5 12V16.5H43.5V12H42.5ZM42.5 18V18.5H43.5V18H42.5ZM42.5 20V50H43.5V20H42.5Z" fill="#FA7126"/>
<rect x="17.5" y="16.5" width="3" height="3" stroke="#5F236B" stroke-linejoin="round"/>
<rect x="23.5" y="16.5" width="3" height="3" stroke="#5F236B" stroke-linejoin="round"/>
<rect x="29.5" y="16.5" width="3" height="3" stroke="#5F236B" stroke-linejoin="round"/>
<rect x="35.5" y="16.5" width="3" height="3" stroke="#5F236B" stroke-linejoin="round"/>
<line x1="17.5" y1="22.5" x2="32.5" y2="22.5" stroke="#5F236B" stroke-linecap="round"/>
<path d="M17.5 25.5H38.5" stroke="#5F236B" stroke-linecap="round"/>
<path d="M17.5 28.5L28 28.5" stroke="#5F236B" stroke-linecap="round"/>
<line x1="17.5" y1="31.5" x2="32.5" y2="31.5" stroke="#5F236B" stroke-linecap="round"/>
<path d="M17.5 34.5H34.5" stroke="#5F236B" stroke-linecap="round"/>
<line x1="17.5" y1="37.5" x2="32.5" y2="37.5" stroke="#5F236B" stroke-linecap="round"/>
<line x1="17.5" y1="40.5" x2="32.5" y2="40.5" stroke="#5F236B" stroke-linecap="round"/>
<path d="M40.2744 41.045C38.8275 38.47 38.5827 34.774 40.4837 32.0048C43.0527 28.2633 48.1281 27.3343 51.8403 29.9443C55.5535 32.554 56.5057 37.7206 53.9373 41.462C51.979 44.3146 48.7047 45.6249 45.417 44.7942L44.1855 46.5879L44.1393 46.6553L41.9528 46.6625L42.3658 48.9015L40.1646 49.3024L40.8388 51.463L39.9431 52.7678C39.9405 52.7715 39.9405 52.7715 39.9388 52.774L39.8426 52.7068C39.5218 53.1292 39.6157 52.946 39.5581 52.9563L35.8059 53.7515C35.4945 53.8076 35.1798 53.6243 35.1224 53.3091L34.5762 49.4355C34.5656 49.3767 34.4203 49.5427 34.6994 49.0905L34.735 49.116C34.7362 49.1136 34.7363 49.1141 34.7375 49.1118L40.2744 41.045ZM48.2709 35.5576C49.2296 36.2315 50.5433 35.9949 51.206 35.0288C51.8688 34.0628 51.6301 32.7349 50.6714 32.061C49.7127 31.3871 48.399 31.6237 47.7363 32.5897C47.0735 33.5558 47.3123 34.8842 48.2709 35.5576Z" fill="#5F236B" stroke="white"/>
</svg>
