<svg width="64" height="65" viewBox="0 0 64 65" fill="none" xmlns="http://www.w3.org/2000/svg">
<circle cx="32" cy="32.5" r="31.5" stroke="#FA7126" stroke-dasharray="2 2"/>
<path d="M49.405 38.9662H40.5919C40.4256 38.9662 40.2654 38.8985 40.1501 38.7788C38.8083 37.3956 38.0032 35.8126 37.8202 34.2015C37.7806 33.8549 37.77 33.5117 37.7603 33.18C37.7515 32.894 37.7436 32.623 37.7181 32.3581C37.7146 32.3221 37.7146 32.286 37.7172 32.2508C37.741 31.9323 38.0067 31.6824 38.3314 31.6824H49.4041C49.7446 31.6824 50.0209 31.9578 50.0209 32.2983V38.3503C50.0209 38.6899 49.7446 38.9662 49.405 38.9662ZM40.8576 37.7343H48.7882V32.9142H38.9843C38.9869 32.9908 38.9896 33.0665 38.9913 33.1421C39.001 33.4633 39.0107 33.766 39.0441 34.0625C39.1884 35.3313 39.814 36.5958 40.8576 37.7343Z" fill="#FA7126"/>
<path d="M49.4082 43.9527C49.3114 43.9527 49.2146 43.9298 49.1257 43.8841C48.7298 43.6799 48.3021 43.474 47.7804 43.2347C47.3906 43.057 46.9893 42.8792 46.6022 42.7067C45.453 42.1973 44.2643 41.6711 43.1477 41.0367C42.955 40.9276 42.8362 40.7226 42.8362 40.5008V38.3574C42.8362 38.0169 43.1116 37.7415 43.4521 37.7415H49.4091C49.7496 37.7415 50.025 38.0169 50.025 38.3574V43.3359C50.025 43.5506 49.9132 43.7503 49.7293 43.8621C49.6308 43.9219 49.5199 43.9527 49.4082 43.9527ZM44.068 40.1392C45.0447 40.6698 46.0883 41.1326 47.1011 41.5814C47.4918 41.7547 47.8965 41.9333 48.2925 42.1146C48.4684 42.1946 48.6339 42.2721 48.7922 42.3469V38.9742H44.0672V40.1392H44.068Z" fill="#FA7126"/>
<path d="M43.4452 41.1159C43.3405 41.1159 43.2349 41.0895 43.1407 41.0358C42.604 40.7314 42.1262 40.426 41.6792 40.104C41.1213 39.7028 40.6066 39.2593 40.1482 38.7859C39.9766 38.6082 39.9273 38.3451 40.0241 38.1172C40.1209 37.8893 40.3435 37.7415 40.5908 37.7415H43.4452C43.7857 37.7415 44.0611 38.0169 44.0611 38.3574V40.5C44.0611 40.719 43.9441 40.9223 43.7549 41.0323C43.659 41.0877 43.5516 41.1159 43.4452 41.1159ZM42.2203 38.9733C42.2793 39.0173 42.3382 39.0613 42.3981 39.1044C42.538 39.2047 42.6805 39.3042 42.8284 39.4018V38.9742H42.2203V38.9733Z" fill="#FA7126"/>
<path d="M19.573 30.4711C19.5457 30.4711 19.5184 30.4694 19.4911 30.4658C18.4837 30.3312 17.4779 30.1262 16.5012 29.8569C15.4295 29.5622 14.3745 29.1856 13.367 28.7377C13.1444 28.6392 13.001 28.4183 13.001 28.1746V26.237C13.001 25.8965 13.2764 25.6211 13.6169 25.6211H19.573C19.9135 25.6211 20.1889 25.8965 20.1889 26.237V29.8552C20.1889 30.0329 20.1124 30.2019 19.9786 30.3189C19.866 30.4174 19.7217 30.4711 19.573 30.4711ZM14.2328 27.7698C15.0731 28.1244 15.9443 28.4262 16.8286 28.6691C17.5263 28.8618 18.2399 29.0193 18.9579 29.1398V26.853H14.2328V27.7698Z" fill="#FA7126"/>
<path d="M49.4091 32.9062H43.4521C43.1116 32.9062 42.8362 32.6307 42.8362 32.2902V26.2382C42.8362 25.8977 43.1116 25.6223 43.4521 25.6223H49.4091C49.7496 25.6223 50.025 25.8977 50.025 26.2382V27.317C50.025 27.6575 49.7496 27.9329 49.4091 27.9329C49.0685 27.9329 48.7931 27.6575 48.7931 27.317V26.8542H44.068V31.6743H48.7931V31.2563C48.7931 30.9158 49.0685 30.6404 49.4091 30.6404C49.7496 30.6404 50.025 30.9158 50.025 31.2563V32.2902C50.025 32.6307 49.7487 32.9062 49.4091 32.9062Z" fill="#FA7126"/>
<path d="M49.4133 29.8801C49.3728 29.8801 49.3323 29.8766 49.2927 29.8687C49.2532 29.8607 49.2144 29.8484 49.1775 29.8335C49.1405 29.8176 49.1045 29.7983 49.071 29.7763C49.0376 29.7543 49.0059 29.7279 48.9777 29.6997C48.9487 29.6716 48.9232 29.6399 48.9012 29.6065C48.8792 29.573 48.8598 29.5369 48.844 29.5C48.829 29.463 48.8167 29.4243 48.8088 29.3847C48.8009 29.3451 48.7974 29.3046 48.7974 29.2642C48.7974 29.2246 48.8009 29.1841 48.8088 29.1436C48.8167 29.1049 48.829 29.0662 48.844 29.0292C48.8598 28.9914 48.8792 28.9562 48.9012 28.9228C48.9232 28.8885 48.9487 28.8568 48.9777 28.8286C49.0059 28.8005 49.0376 28.7749 49.071 28.7521C49.1045 28.7301 49.1405 28.7107 49.1775 28.6958C49.2144 28.6799 49.2532 28.6685 49.2927 28.6606C49.3719 28.6447 49.4538 28.6447 49.5338 28.6606C49.5726 28.6685 49.6113 28.6799 49.6482 28.6958C49.6861 28.7107 49.7213 28.7301 49.7547 28.7521C49.789 28.7749 49.8198 28.8005 49.8488 28.8286C49.877 28.8568 49.9025 28.8885 49.9254 28.9228C49.9474 28.9562 49.9668 28.9914 49.9817 29.0292C49.9967 29.0662 50.009 29.1049 50.0169 29.1436C50.0248 29.1841 50.0292 29.2246 50.0292 29.2642C50.0292 29.3046 50.0248 29.3451 50.0169 29.3847C50.009 29.4243 49.9967 29.463 49.9817 29.5C49.9668 29.5369 49.9474 29.573 49.9254 29.6065C49.9025 29.6399 49.877 29.6716 49.8488 29.6997C49.8198 29.7279 49.789 29.7543 49.7547 29.7763C49.7213 29.7983 49.6861 29.8176 49.6482 29.8335C49.6113 29.8484 49.5726 29.8607 49.5338 29.8687C49.4934 29.8766 49.4529 29.8801 49.4133 29.8801Z" fill="#FA7126"/>
<path d="M43.4369 32.9053H38.3211C37.9965 32.9053 37.7307 32.6536 37.707 32.3351C37.6841 32.0922 37.648 31.8837 37.5979 31.6972C37.121 29.9303 35.0189 28.9835 33.1895 28.9615C32.6959 28.9571 32.1829 28.995 31.6172 29.0821C31.4394 29.1094 31.259 29.0583 31.1227 28.9413C30.9863 28.8243 30.908 28.6536 30.908 28.4741V26.2382C30.908 25.8977 31.1834 25.6223 31.5239 25.6223H43.4378C43.7783 25.6223 44.0537 25.8977 44.0537 26.2382V32.2885C44.0528 32.6281 43.7765 32.9053 43.4369 32.9053ZM38.8552 31.6734H42.821V26.8533H32.1381V27.7754C32.5059 27.7402 32.8578 27.7253 33.2036 27.7297C35.4254 27.7561 38.1196 28.9088 38.7857 31.3751C38.8121 31.471 38.835 31.5705 38.8552 31.6734Z" fill="#FA7126"/>
<path d="M22.4631 30.6625C21.4838 30.6625 20.4974 30.5965 19.5075 30.4636C19.2013 30.4223 18.9734 30.1618 18.9734 29.853V26.2348C18.9734 25.8943 19.2488 25.6189 19.5893 25.6189H31.5032C31.8437 25.6189 32.1191 25.8943 32.1191 26.2348V28.4707C32.1191 28.7751 31.8974 29.0329 31.5965 29.0796C30.6849 29.2195 29.7522 29.4694 28.8494 29.7104C28.2722 29.8644 27.6756 30.0237 27.0799 30.1574C25.5718 30.4944 24.0267 30.6625 22.4631 30.6625ZM20.2044 29.3075C22.449 29.5512 24.6699 29.4324 26.8124 28.9546C27.3835 28.827 27.9678 28.6713 28.5327 28.5199C29.2999 28.3149 30.0883 28.1046 30.8882 27.9524V26.8508H20.2044V29.3075Z" fill="#FA7126"/>
<path d="M19.5729 20.7838H13.6159C13.2754 20.7838 13 20.5084 13 20.1679V14.1159C13 13.7754 13.2754 13.5 13.6159 13.5H19.5729C19.9134 13.5 20.1888 13.7754 20.1888 14.1159V20.167C20.1888 20.5076 19.9134 20.7838 19.5729 20.7838ZM14.2319 19.552H18.9569V14.7319H14.2319V19.552Z" fill="#FA7126"/>
<path d="M31.5029 20.7837H19.5881C19.2476 20.7837 18.9722 20.5083 18.9722 20.1678V14.1167C18.9722 13.7761 19.2476 13.5007 19.5881 13.5007H31.5029C31.8434 13.5007 32.1188 13.7761 32.1188 14.1167V20.1678C32.1188 20.5083 31.8434 20.7837 31.5029 20.7837ZM20.204 19.5518H30.8869V14.7326H20.204V19.5518Z" fill="#FA7126"/>
<path d="M25.5373 26.8438H13.6225C13.282 26.8438 13.0066 26.5683 13.0066 26.2278V22.5137C13.0066 22.1732 13.282 21.8978 13.6225 21.8978C13.963 21.8978 14.2385 22.1732 14.2385 22.5137V25.6119H24.9214V20.7927H13.6225C13.282 20.7927 13.0066 20.5172 13.0066 20.1767C13.0066 19.8362 13.282 19.5608 13.6225 19.5608H25.5373C25.8778 19.5608 26.1532 19.8362 26.1532 20.1767V26.2278C26.1532 26.5683 25.8769 26.8438 25.5373 26.8438Z" fill="#FA7126"/>
<path d="M49.4046 26.843H37.4907C37.1502 26.843 36.8748 26.5676 36.8748 26.2271V20.176C36.8748 19.8355 37.1502 19.5601 37.4907 19.5601H49.4055C49.746 19.5601 50.0214 19.8355 50.0214 20.176V26.2271C50.0205 26.5676 49.7451 26.843 49.4046 26.843ZM38.1066 25.6112H48.7895V20.7919H38.1066V25.6112Z" fill="#FA7126"/>
<path d="M37.4697 26.843H25.5549C25.2144 26.843 24.939 26.5676 24.939 26.2271V20.176C24.939 19.8355 25.2144 19.5601 25.5549 19.5601H37.4697C37.8102 19.5601 38.0856 19.8355 38.0856 20.176V26.2271C38.0856 26.5676 37.8093 26.843 37.4697 26.843ZM26.1708 25.6112H36.8537V20.7919H26.1708V25.6112Z" fill="#FA7126"/>
<path d="M49.4043 51.0798C49.0638 51.0798 48.7884 50.8044 48.7884 50.4638V44.4444C48.7875 44.4339 48.7875 44.4224 48.7875 44.4119V43.7167C48.4839 43.5663 48.1548 43.4096 47.7756 43.2363C47.3858 43.0586 46.9846 42.8808 46.5974 42.7084C45.4482 42.1989 44.2595 41.6727 43.1429 41.0383C42.607 40.7339 42.1284 40.4294 41.6814 40.1074C41.1235 39.7061 40.6088 39.2627 40.1504 38.7893C38.8094 37.4069 38.0043 35.824 37.8212 34.212C37.7817 33.8653 37.7711 33.5222 37.7614 33.1904C37.7526 32.9045 37.7447 32.6335 37.7192 32.3686C37.6866 32.0299 37.9348 31.7289 38.2735 31.6964C38.614 31.6629 38.9132 31.9119 38.9458 32.2507C38.9748 32.556 38.9845 32.8596 38.9933 33.1526C39.003 33.4738 39.0126 33.7765 39.0461 34.073C39.1983 35.4113 39.8864 36.7461 41.0364 37.9314C41.4447 38.3528 41.904 38.7488 42.402 39.1069C42.8138 39.4034 43.2555 39.685 43.7527 39.9675C44.8165 40.572 45.9762 41.0858 47.0981 41.583C47.4887 41.7563 47.8935 41.9349 48.2895 42.1162C48.8297 42.3634 49.2741 42.5773 49.6876 42.7911C49.8926 42.8967 50.0211 43.1078 50.0211 43.3384V44.3793C50.022 44.3899 50.022 44.4013 50.022 44.4119V50.4638C50.0202 50.8035 49.7439 51.0798 49.4043 51.0798Z" fill="#5F236B"/>
<path d="M45.856 51.077H13.6357C13.2952 51.077 13.0198 50.8015 13.0198 50.461V44.409C13.0198 44.3976 13.0198 44.387 13.0207 44.3765V38.3905C13.0198 38.3799 13.0198 38.3685 13.0198 38.358V32.306C13.0198 32.2945 13.0198 32.284 13.0207 32.2734V28.1924C13.0207 27.9839 13.1262 27.7894 13.3013 27.6759C13.4764 27.5624 13.6964 27.5448 13.8874 27.6293C14.8394 28.0525 15.8355 28.408 16.8482 28.6869C17.7686 28.9403 18.7154 29.1339 19.6639 29.2615C19.6674 29.2615 19.6718 29.2624 19.6754 29.2633C22.1021 29.588 24.5052 29.4912 26.8175 28.9755C27.3886 28.848 27.9729 28.6922 28.5378 28.5409C29.4722 28.291 30.4375 28.0332 31.415 27.8827C32.0486 27.785 32.6293 27.741 33.1898 27.7481C35.4116 27.7745 38.1058 28.9271 38.7719 31.3935C38.8414 31.6504 38.8898 31.9311 38.9197 32.2488C38.9514 32.5875 38.7024 32.8876 38.3636 32.9193C38.024 32.9509 37.7248 32.7019 37.6931 32.3632C37.6703 32.1159 37.6342 31.9039 37.5823 31.7147C37.1054 29.9478 35.0033 29.0011 33.174 28.9791C32.6803 28.9747 32.1674 29.0125 31.6016 29.0996C30.69 29.2404 29.7564 29.4894 28.8545 29.7305C28.2773 29.8845 27.6807 30.0437 27.085 30.1775C24.6336 30.7239 22.0898 30.8277 19.5223 30.4855C19.5187 30.4846 19.5143 30.4846 19.5108 30.4837C18.5033 30.3491 17.4976 30.1441 16.5209 29.8748C15.7528 29.6636 14.9925 29.4102 14.2525 29.1181V32.306C14.2525 32.3174 14.2525 32.328 14.2516 32.3385V38.3254C14.2525 38.336 14.2525 38.3474 14.2525 38.358V44.409C14.2525 44.4205 14.2525 44.431 14.2516 44.4416V49.8451H45.8551C46.1957 49.8451 46.4711 50.1205 46.4711 50.461C46.4711 50.8015 46.1965 51.077 45.856 51.077Z" fill="#5F236B"/>
<rect x="16" y="32.5" width="4" height="16" fill="#5F236B"/>
<rect x="21" y="32.5" width="2" height="16" fill="#5F236B"/>
<rect x="24" y="32.5" width="1" height="16" fill="#5F236B"/>
</svg>
