<svg width="64" height="65" viewBox="0 0 64 65" fill="none" xmlns="http://www.w3.org/2000/svg">
<circle cx="32" cy="32.5" r="31.5" stroke="#FA7126" stroke-dasharray="2 2"/>
<path d="M46 44.5L54.5 44.5V50.5H52.5V48.5H48" stroke="#5F236B" stroke-linecap="round" stroke-linejoin="round"/>
<rect x="36" y="13.5" width="2" height="8" transform="rotate(90 36 13.5)" stroke="#5F236B" stroke-linejoin="round"/>
<rect x="46" y="36.5" width="2" height="6" stroke="#5F236B" stroke-linejoin="round"/>
<path d="M36.5 49.5H35.5M38.5 49.5H43.875H46V41V34M33.5 49.5H29V49.5C19.6112 49.5 12 41.8888 12 32.5V32.5C12 23.1112 19.6112 15.5 29 15.5V15.5H37.5L41.5 19.5L46 24V28.25" stroke="#FA7126" stroke-linecap="round" stroke-linejoin="round"/>
<path d="M16.5 32.5C16.5 25.5964 22.0964 20 29 20H35.2988L38.3965 22.9738L41.5 26.2014V32.5V45H29C22.0964 45 16.5 39.4036 16.5 32.5Z" stroke="#FA7126"/>
<path d="M22.5 32.5C22.5 28.9101 25.4101 26 29 26H32.2988L33.8965 27.5338L35.5 29.2014V32.5V39H29C25.4101 39 22.5 36.0899 22.5 32.5Z" fill="#5F236B" stroke="#5F236B"/>
<rect x="30.5" y="30" width="16" height="4" fill="white" stroke="#FA7126" stroke-linejoin="round"/>
</svg>
