<svg width="36" height="36" viewBox="0 0 36 36" fill="none" xmlns="http://www.w3.org/2000/svg">
<path d="M0 6C0 2.68629 2.68629 0 6 0H30C33.3137 0 36 2.68629 36 6V30C36 33.3137 33.3137 36 30 36H6C2.68629 36 0 33.3137 0 30V6Z" fill="white"/>
<path d="M25.5076 22.1004C25.1776 22.1004 24.8775 21.9804 24.6375 21.7404L18.0076 14.8404L11.3776 21.7404C10.9276 22.2204 10.1475 22.2204 9.66754 21.7704C9.18754 21.3204 9.18754 20.5404 9.63754 20.0604L17.1375 12.2604C17.3775 12.0204 17.6776 11.9004 18.0076 11.9004C18.3376 11.9004 18.6376 12.0204 18.8776 12.2604L26.3776 20.0604C26.8276 20.5404 26.8276 21.2904 26.3476 21.7704C26.1076 21.9804 25.8076 22.1004 25.5076 22.1004Z" fill="#FA7126"/>
</svg>
