<svg width="16" height="17" viewBox="0 0 16 17" fill="none" xmlns="http://www.w3.org/2000/svg">
<path fill-rule="evenodd" clip-rule="evenodd" d="M8 0.5C3.58172 0.5 0 4.08172 0 8.5C0 12.9183 3.58172 16.5 8 16.5C12.4183 16.5 16 12.9183 16 8.5C16 4.08172 12.4183 0.5 8 0.5ZM12.5435 4.60126C12.0373 4.10815 11.3493 3.83333 10.6341 3.83333H5.36533C3.87147 3.83333 2.66667 5.00519 2.66667 6.45185V10.5481C2.66667 11.9948 3.8768 13.1667 5.36533 13.1667H10.6341C12.1227 13.1667 13.3333 11.9948 13.3333 10.5481V6.45185C13.3333 5.75704 13.0501 5.09333 12.5435 4.60126ZM11.5253 7.18321L11.4826 7.22469L9.07674 9.09654C8.7786 9.32469 8.41007 9.44913 8.03193 9.44913C7.65273 9.44913 7.2906 9.32469 6.99193 9.09654L4.56527 7.2558L4.4954 7.18839C4.37327 7.03284 4.38927 6.80987 4.53327 6.66987C4.6714 6.52987 4.90073 6.51432 5.0666 6.63358L7.4666 8.50024C7.78074 8.74965 8.22394 8.74965 8.53327 8.50024L10.9381 6.63358C11.0186 6.56098 11.1253 6.52417 11.2373 6.52987C11.3434 6.54024 11.4453 6.58743 11.5194 6.66469C11.6527 6.81506 11.6527 7.03284 11.5253 7.18321Z" fill="white"/>
</svg>
