<svg width="24" height="24" viewBox="0 0 24 24" fill="none" xmlns="http://www.w3.org/2000/svg">
<path fill-rule="evenodd" clip-rule="evenodd" d="M12 24C18.6274 24 24 18.6274 24 12C24 5.37258 18.6274 0 12 0C5.37258 0 0 5.37258 0 12C0 18.6274 5.37258 24 12 24ZM10.75 12.0801V17H12.8864V12.0801H14.5455L14.8182 10.125H12.8864V8.77148C12.8864 8.45638 12.947 8.22721 13.0682 8.08398C13.2197 7.91211 13.5 7.82617 13.9091 7.82617H15V6.08594C14.5909 6.02865 14.0606 6 13.4091 6C12.6061 6 11.9621 6.22917 11.4773 6.6875C10.9924 7.13151 10.75 7.76172 10.75 8.57812V10.125H9V12.0801H10.75Z" fill="#5F236B"/>
</svg>
