<svg width="24" height="24" viewBox="0 0 24 24" fill="none" xmlns="http://www.w3.org/2000/svg">
<path fill-rule="evenodd" clip-rule="evenodd" d="M12 24C18.6274 24 24 18.6274 24 12C24 5.37258 18.6274 0 12 0C5.37258 0 0 5.37258 0 12C0 18.6274 5.37258 24 12 24ZM8.92538 12C8.92538 10.297 10.2987 8.92335 12.0013 8.92335C13.704 8.92335 15.0773 10.297 15.0773 12C15.0773 13.703 13.704 15.0766 12.0013 15.0766C10.2987 15.0766 8.92538 13.703 8.92538 12ZM10.0016 12C10.0016 13.1032 10.9011 14.0002 12.0013 14.0002C13.1016 14.0002 14.0011 13.1032 14.0011 12C14.0011 10.8968 13.1043 9.99978 12.0013 9.99978C10.8984 9.99978 10.0016 10.8968 10.0016 12ZM15.2031 9.51512C15.5993 9.51512 15.9206 9.19647 15.9206 8.7975C15.9206 8.40121 15.5993 8.07988 15.2031 8.07988C14.8069 8.07988 14.4857 8.40121 14.4857 8.7975C14.4857 9.1938 14.8042 9.51512 15.2031 9.51512ZM16.9887 7.01149C17.6928 7.71304 17.9123 8.56454 17.9578 9.52583C18.0141 10.5166 18.0141 13.4834 17.9578 14.4742C17.9096 15.4355 17.6901 16.287 16.9887 16.9885C16.2873 17.6927 15.436 17.9123 14.475 17.9578C13.4844 18.0141 10.5156 18.0141 9.52504 17.9578C8.56397 17.9096 7.71534 17.6901 7.01127 16.9885C6.30719 16.287 6.08767 15.4355 6.04216 14.4742C5.98595 13.4834 5.98595 10.5139 6.04216 9.52315C6.09035 8.56186 6.30719 7.71036 7.01127 7.00881C7.71534 6.30726 8.56665 6.08769 9.52504 6.04217C10.5156 5.98594 13.4844 5.98594 14.475 6.04217C15.436 6.09037 16.2873 6.30994 16.9887 7.01149ZM15.5378 16.6779C16.0651 16.4664 16.4694 16.062 16.6782 15.5372C16.9468 14.862 16.9319 13.385 16.9222 12.4275C16.9206 12.2687 16.9191 12.1242 16.9191 12C16.9191 11.8758 16.9206 11.7313 16.9222 11.5725C16.9319 10.6156 16.9468 9.1403 16.6782 8.46279C16.4667 7.93529 16.0625 7.53096 15.5378 7.3221C14.8606 7.05485 13.3767 7.06908 12.4198 7.07827C12.2645 7.07975 12.1232 7.08111 12.0013 7.08111C11.8771 7.08111 11.7327 7.07965 11.5739 7.07804C10.6172 7.06834 9.14227 7.0534 8.46492 7.3221C7.93753 7.53364 7.5333 7.93797 7.32448 8.46279C7.05729 9.14014 7.07152 10.6243 7.0807 11.5815C7.08219 11.7367 7.08355 11.8782 7.08355 12C7.08355 12.1242 7.08208 12.2687 7.08047 12.4275C7.07078 13.3844 7.05584 14.8597 7.32448 15.5372C7.53597 16.0647 7.94021 16.469 8.46492 16.6779C9.14212 16.9452 10.6259 16.9309 11.5829 16.9217C11.7381 16.9202 11.8795 16.9189 12.0013 16.9189C12.1255 16.9189 12.27 16.9204 12.4287 16.922C13.3855 16.9317 14.8604 16.9466 15.5378 16.6779Z" fill="#5F236B"/>
</svg>
