<svg width="16" height="17" viewBox="0 0 16 17" fill="none" xmlns="http://www.w3.org/2000/svg">
<path fill-rule="evenodd" clip-rule="evenodd" d="M8 0.5C3.58172 0.5 0 4.08172 0 8.5C0 12.9183 3.58172 16.5 8 16.5C12.4183 16.5 16 12.9183 16 8.5C16 4.08172 12.4183 0.5 8 0.5ZM6.23964 4.25911C6.69475 4.2384 6.84018 4.23333 7.99894 4.23333H7.99761C9.15673 4.23333 9.30162 4.2384 9.75674 4.25911C10.211 4.27991 10.5212 4.35182 10.7932 4.45734C11.0741 4.56623 11.3114 4.71201 11.5488 4.94934C11.7861 5.1865 11.9319 5.42455 12.0412 5.70517C12.1461 5.97646 12.2181 6.28651 12.2394 6.74074C12.2599 7.19586 12.2652 7.34128 12.2652 8.50005C12.2652 9.65882 12.2599 9.80388 12.2394 10.259C12.2181 10.713 12.1461 11.0232 12.0412 11.2946C11.9319 11.5751 11.7861 11.8132 11.5488 12.0503C11.3117 12.2876 11.074 12.4338 10.7935 12.5428C10.522 12.6483 10.2116 12.7202 9.75736 12.741C9.30225 12.7617 9.15727 12.7668 7.99841 12.7668C6.83973 12.7668 6.6944 12.7617 6.23928 12.741C5.78514 12.7202 5.47501 12.6483 5.20354 12.5428C4.92309 12.4338 4.68504 12.2876 4.44797 12.0503C4.21072 11.8132 4.06495 11.5751 3.95588 11.2945C3.85045 11.0232 3.77854 10.7131 3.75765 10.2589C3.73703 9.8038 3.73188 9.65882 3.73188 8.50005C3.73188 7.34128 3.73721 7.19577 3.75756 6.74065C3.77801 6.2866 3.85001 5.97646 3.95579 5.70508C4.06512 5.42455 4.2109 5.1865 4.44824 4.94934C4.6854 4.7121 4.92344 4.56632 5.20407 4.45734C5.47536 4.35182 5.78541 4.27991 6.23964 4.25911Z" fill="white"/>
<path fill-rule="evenodd" clip-rule="evenodd" d="M7.61859 5.00204C7.69291 5.00193 7.77287 5.00196 7.85915 5.002L8.00135 5.00204C9.14056 5.00204 9.27559 5.00613 9.72546 5.02657C10.1415 5.0456 10.3672 5.11511 10.5176 5.17351C10.7168 5.25084 10.8587 5.34329 11.008 5.49262C11.1573 5.64196 11.2497 5.78418 11.3273 5.9833C11.3857 6.13352 11.4553 6.3593 11.4742 6.7753C11.4946 7.22509 11.4991 7.3602 11.4991 8.49888C11.4991 9.63756 11.4946 9.77267 11.4742 10.2225C11.4552 10.6385 11.3857 10.8642 11.3273 11.0145C11.2499 11.2136 11.1573 11.3554 11.008 11.5046C10.8586 11.6539 10.7168 11.7464 10.5176 11.8237C10.3674 11.8824 10.1415 11.9517 9.72546 11.9707C9.27568 11.9912 9.14056 11.9956 8.00135 11.9956C6.86205 11.9956 6.72703 11.9912 6.27725 11.9707C5.86124 11.9515 5.63546 11.882 5.48497 11.8236C5.28586 11.7463 5.14364 11.6538 4.9943 11.5045C4.84497 11.3552 4.75252 11.2133 4.67501 11.0141C4.61661 10.8639 4.54701 10.6381 4.52807 10.2221C4.50763 9.77231 4.50354 9.6372 4.50354 8.49781C4.50354 7.35842 4.50763 7.22402 4.52807 6.77424C4.5471 6.35823 4.61661 6.13245 4.67501 5.98205C4.75234 5.78294 4.84497 5.64071 4.9943 5.49138C5.14364 5.34204 5.28586 5.2496 5.48497 5.17209C5.63537 5.11342 5.86124 5.04409 6.27725 5.02497C6.67085 5.0072 6.82339 5.00186 7.61859 5.00098V5.00204ZM10.2755 5.71048C9.99288 5.71048 9.76354 5.93955 9.76354 6.22231C9.76354 6.50498 9.99288 6.73431 10.2755 6.73431C10.5582 6.73431 10.7876 6.50498 10.7876 6.22231C10.7876 5.93964 10.5582 5.7103 10.2755 5.7103V5.71048ZM5.80854 8.49987C5.80854 7.28984 6.78957 6.30878 7.99959 6.30873C9.20964 6.30873 10.1905 7.28981 10.1905 8.49987C10.1905 9.70993 9.20973 10.6906 7.99967 10.6906C6.78962 10.6906 5.80854 9.70993 5.80854 8.49987Z" fill="white"/>
<path fill-rule="evenodd" clip-rule="evenodd" d="M8.00036 7.07764C8.78579 7.07764 9.4226 7.71435 9.4226 8.49987C9.4226 9.2853 8.78579 9.92211 8.00036 9.92211C7.21484 9.92211 6.57812 9.2853 6.57812 8.49987C6.57812 7.71435 7.21484 7.07764 8.00036 7.07764V7.07764Z" fill="white"/>
</svg>
