<svg width="13" height="15" viewBox="0 0 13 15" fill="none" xmlns="http://www.w3.org/2000/svg">
<path fill-rule="evenodd" clip-rule="evenodd" d="M0.599976 6.28859C0.599976 2.97669 3.36757 0.299805 6.71526 0.299805C10.0724 0.299805 12.84 2.97669 12.84 6.28859C12.84 7.9575 12.233 9.5069 11.234 10.8201C10.1319 12.2687 8.77353 13.5309 7.24453 14.5216C6.89458 14.7505 6.57876 14.7678 6.1947 14.5216C4.65698 13.5309 3.2986 12.2687 2.20594 10.8201C1.2062 9.5069 0.599976 7.9575 0.599976 6.28859ZM4.69988 6.47473C4.69988 7.58422 5.60523 8.45683 6.71531 8.45683C7.82613 8.45683 8.74019 7.58422 8.74019 6.47473C8.74019 5.37388 7.82613 4.45879 6.71531 4.45879C5.60523 4.45879 4.69988 5.37388 4.69988 6.47473Z" fill="white"/>
</svg>
