<svg width="99" height="168" viewBox="0 0 99 168" fill="none" xmlns="http://www.w3.org/2000/svg">
<path d="M2.14551 167.492V85.6229H20.6277C20.6277 85.6229 28.1151 87.3921 29.426 90.9423C30.6069 94.0651 45.2864 132.31 48.7348 141.275C48.7856 141.422 48.8806 141.549 49.0065 141.639C49.1324 141.729 49.283 141.777 49.4375 141.777C49.592 141.777 49.7427 141.729 49.8686 141.639C49.9945 141.549 50.0894 141.422 50.1402 141.275L67.7131 92.7352C67.7131 92.7352 70.7954 85.611 75.2004 85.611H94.096V167.48C94.096 167.48 83.5971 170.187 80.7864 161.721V103.991L56.3994 165.414C56.1144 166.14 55.6182 166.763 54.9757 167.202C54.3331 167.64 53.574 167.874 52.7974 167.872H46.5855C45.8295 167.864 45.092 167.636 44.4629 167.214C43.8339 166.792 43.3404 166.196 43.0426 165.497L17.4037 102.674L17.1911 162.624C17.1911 162.624 17.1911 169.938 2.22818 167.504" fill="white"/>
<path d="M94.7442 35.1088H94.1181C92.5014 28.1407 89.2536 21.6592 84.6436 16.2011C80.0336 10.7429 74.1941 6.46513 67.6085 3.72189V18.6568C67.6085 19.5056 67.2725 20.3196 66.6743 20.9197C66.0761 21.5199 65.2648 21.8571 64.4189 21.8571C63.5729 21.8571 62.7616 21.5199 62.1634 20.9197C61.5653 20.3196 61.2292 19.5056 61.2292 18.6568V1.51722C57.3563 0.505573 53.3703 -0.00430287 49.3684 2.73501e-05C45.481 0.00282213 41.6087 0.484508 37.8384 1.43426V18.6568C37.8384 19.5056 37.5023 20.3196 36.9042 20.9197C36.306 21.5199 35.4947 21.8571 34.6487 21.8571C33.8028 21.8571 32.9915 21.5199 32.3933 20.9197C31.7951 20.3196 31.4591 19.5056 31.4591 18.6568V3.57966C24.7908 6.29047 18.8696 10.5697 14.1944 16.0568C9.51923 21.5439 6.22697 28.0781 4.59508 35.1088H4.29974C3.22302 35.1059 2.18464 35.5096 1.39087 36.2395C0.597101 36.9694 0.106046 37.9723 0.0152744 39.0487C-0.0754967 40.1252 0.240653 41.1965 0.900912 42.0499C1.56117 42.9033 2.51722 43.4762 3.57911 43.6549C3.8172 43.6967 4.05809 43.7205 4.29974 43.726H95.1577C96.2456 43.6119 97.2489 43.0849 97.9623 42.253C98.6757 41.4211 99.0453 40.3471 98.9955 39.2508C98.9457 38.1544 98.4803 37.1186 97.6944 36.3553C96.9085 35.5919 95.8616 35.1587 94.7678 35.1444" fill="white"/>
<path d="M77.1459 48.4821C74.3275 53.4439 70.2497 57.5691 65.3267 60.4386C60.4037 63.3082 54.811 64.8197 49.1169 64.8197C43.4227 64.8197 37.8301 63.3082 32.9071 60.4386C27.9841 57.5691 23.9062 53.4439 21.0878 48.4821H3.98453C9.77224 67.0911 27.7968 80.7013 49.1169 80.7013C70.4369 80.7013 88.4615 67.0911 94.2492 48.4821H77.1459Z" fill="white"/>
</svg>
