<svg width="16" height="17" viewBox="0 0 16 17" fill="none" xmlns="http://www.w3.org/2000/svg">
<path fill-rule="evenodd" clip-rule="evenodd" d="M8 0.5C3.58172 0.5 0 4.08172 0 8.5C0 12.9183 3.58172 16.5 8 16.5C12.4183 16.5 16 12.9183 16 8.5C16 4.08172 12.4183 0.5 8 0.5ZM5.89143 4.62082C5.83756 4.53184 5.75429 4.50816 5.65714 4.51633C5.63837 4.51878 5.61959 4.51878 5.59592 4.5C5.54186 4.51255 5.48774 4.52474 5.4336 4.53693C5.30461 4.56599 5.17557 4.59506 5.04734 4.62898C4.82039 4.69021 4.64488 4.82735 4.50447 5.01429C4.32569 5.25512 4.20732 5.52451 4.11263 5.80614C4.00732 6.11799 3.97222 6.43473 4.02283 6.76371C4.06691 7.05433 4.16487 7.32617 4.26447 7.60046C4.42855 8.05516 4.60978 8.50088 4.86366 8.91477C5.25306 9.55233 5.7347 10.1123 6.2743 10.6258C6.70043 11.0299 7.16084 11.3915 7.66697 11.6911C8.22453 12.0201 8.83026 12.2373 9.44496 12.4267C9.76334 12.5263 10.0948 12.5532 10.427 12.4789C10.7927 12.3973 11.1364 12.2642 11.4442 12.0487C11.5552 11.9695 11.6654 11.8716 11.743 11.7597C11.9283 11.4903 11.9813 11.1768 11.9993 10.8577C12.0058 10.7442 11.9675 10.6617 11.8719 10.6054C11.8076 10.5669 11.7435 10.5277 11.6793 10.4885C11.5667 10.4196 11.4538 10.3506 11.3389 10.2846C11.2274 10.2205 11.1138 10.1599 11.0001 10.0994C10.7708 9.97718 10.5411 9.85482 10.3282 9.70254C10.3055 9.68608 10.2788 9.67355 10.2523 9.66115C10.2446 9.65755 10.237 9.65396 10.2295 9.65029C10.1095 9.58988 9.99518 9.59968 9.89069 9.68784C9.83926 9.73029 9.78619 9.77437 9.74211 9.82417C9.66274 9.91342 9.58443 10.003 9.5062 10.0924C9.4034 10.21 9.30074 10.3274 9.19598 10.4438C8.99761 10.665 8.89802 10.6895 8.6425 10.545C8.37148 10.3915 8.1029 10.2307 7.84494 10.0552C7.17554 9.60213 6.64573 9.01436 6.23103 8.32292C6.1259 8.14719 6.03014 7.96784 5.93427 7.78828C5.92815 7.77683 5.92204 7.76538 5.91592 7.75393C5.8498 7.62903 5.87511 7.51066 5.97307 7.41597C6.05003 7.342 6.13005 7.27079 6.21014 7.19953C6.26087 7.15438 6.31163 7.10921 6.36165 7.06331C6.40188 7.02648 6.44251 6.98987 6.48316 6.95324C6.59839 6.8494 6.71383 6.74537 6.82125 6.63555C6.92329 6.53187 6.92655 6.40126 6.85798 6.27146L6.85283 6.26266C6.82099 6.20829 6.78838 6.15261 6.75431 6.09839C6.74017 6.07659 6.72507 6.05522 6.70997 6.03385C6.68324 5.996 6.65651 5.95816 6.63512 5.91798C6.57986 5.81886 6.52606 5.71901 6.4723 5.61923C6.39899 5.48316 6.32576 5.34724 6.24899 5.21348C6.14295 5.02848 6.03137 4.84764 5.92 4.66712C5.91047 4.65168 5.90095 4.63625 5.89143 4.62082Z" fill="white"/>
</svg>
