<svg width="16" height="17" viewBox="0 0 16 17" fill="none" xmlns="http://www.w3.org/2000/svg">
<path fill-rule="evenodd" clip-rule="evenodd" d="M8 16.5C12.4183 16.5 16 12.9183 16 8.5C16 4.08172 12.4183 0.5 8 0.5C3.58172 0.5 0 4.08172 0 8.5C0 12.9183 3.58172 16.5 8 16.5ZM6.53333 12.1667C6.7279 12.1667 6.81682 12.0801 6.92429 11.9755L6.93333 11.9667L7.89424 11.0323L9.89334 12.5093C10.2612 12.7123 10.5268 12.6072 10.6184 12.1677L11.9307 5.9835C12.0651 5.44482 11.7254 5.2005 11.3735 5.36029L3.66745 8.33169C3.14145 8.54267 3.14451 8.83613 3.57157 8.96689L5.54911 9.58411L10.1273 6.69577C10.3434 6.56471 10.5418 6.63517 10.379 6.77967L6.66953 10.1272L6.66947 10.1271L6.66946 10.1272L6.66934 10.1273L6.66945 10.1274L6.53333 12.1667Z" fill="white"/>
</svg>
