<svg width="16" height="17" viewBox="0 0 16 17" fill="none" xmlns="http://www.w3.org/2000/svg">
<path fill-rule="evenodd" clip-rule="evenodd" d="M8 0.5C3.58172 0.5 0 4.08172 0 8.5C0 12.9183 3.58172 16.5 8 16.5C12.4183 16.5 16 12.9183 16 8.5C16 4.08172 12.4183 0.5 8 0.5ZM8.64982 11.0254C8.57093 11.1085 8.41693 11.1253 8.41693 11.1253H7.9069C7.9069 11.1253 6.78169 11.1917 5.79044 10.179C4.70947 9.07404 3.75495 6.88182 3.75495 6.88182C3.75495 6.88182 3.69986 6.73802 3.75954 6.66878C3.82674 6.59053 4.00996 6.58562 4.00996 6.58562L5.22909 6.57783C5.22909 6.57783 5.34386 6.59627 5.42608 6.65567C5.49411 6.70483 5.53209 6.79619 5.53209 6.79619C5.53209 6.79619 5.72909 7.28536 5.98994 7.72782C6.49955 8.59184 6.73661 8.78071 6.9094 8.68812C7.16149 8.55333 7.08595 7.46685 7.08595 7.46685C7.08595 7.46685 7.09054 7.07273 6.95907 6.89698C6.85723 6.76096 6.66524 6.72122 6.58052 6.71016C6.51165 6.70115 6.62434 6.54465 6.77042 6.47459C6.98995 6.3693 7.37727 6.36316 7.83512 6.36766C8.19197 6.37135 8.29464 6.39306 8.43404 6.42625C8.75757 6.50288 8.74747 6.74848 8.72567 7.27853C8.71915 7.43706 8.71159 7.62102 8.71159 7.83351C8.71159 7.88127 8.71017 7.93217 8.70871 7.98453C8.70114 8.25608 8.69248 8.56705 8.87478 8.68279C8.96827 8.74179 9.19656 8.69139 9.76794 7.73929C10.0388 7.28781 10.2416 6.75727 10.2416 6.75727C10.2416 6.75727 10.2863 6.66264 10.3552 6.62208C10.4257 6.5807 10.5209 6.5934 10.5209 6.5934L11.8038 6.58562C11.8038 6.58562 12.1895 6.54014 12.2517 6.71139C12.3172 6.89042 12.1077 7.30912 11.5835 7.99493C11.0862 8.64566 10.8442 8.88525 10.8664 9.09714C10.8827 9.25197 11.04 9.39201 11.3418 9.66685C11.972 10.2411 12.1409 10.5433 12.1814 10.6159C12.1848 10.6219 12.1873 10.6263 12.1891 10.6292C12.4716 11.0893 11.8756 11.1253 11.8756 11.1253L10.7358 11.1409C10.7358 11.1409 10.4912 11.1884 10.169 10.9713C10.0002 10.8576 9.83531 10.672 9.67822 10.4952C9.43832 10.2252 9.21669 9.97583 9.02753 10.0347C8.70992 10.1339 8.71952 10.8054 8.71952 10.8054C8.71952 10.8054 8.72202 10.9492 8.64982 11.0254Z" fill="white"/>
</svg>
