<svg width="16" height="17" viewBox="0 0 16 17" fill="none" xmlns="http://www.w3.org/2000/svg">
<path fill-rule="evenodd" clip-rule="evenodd" d="M16 8.5C16 12.9183 12.4183 16.5 8 16.5C3.58172 16.5 0 12.9183 0 8.5C0 4.08172 3.58172 0.5 8 0.5C12.4183 0.5 16 4.08172 16 8.5ZM8.26172 12.9508H8.26369C10.8865 12.9498 13.0197 10.8161 13.0207 8.19383C13.0212 6.92278 12.5269 5.72761 11.6287 4.82847C10.7306 3.92929 9.53621 3.43388 8.26365 3.43333C5.64161 3.43333 3.50759 5.56723 3.50655 8.19008C3.50619 9.02849 3.72524 9.84684 4.14154 10.5683L3.46667 13.0333L5.98845 12.3718C6.68327 12.7508 7.46557 12.9506 8.26172 12.9508Z" fill="white"/>
<path fill-rule="evenodd" clip-rule="evenodd" d="M6.2497 11.5963L6.10532 11.5106L4.60886 11.9032L5.00828 10.4441L4.91427 10.2945C4.51848 9.66504 4.30945 8.93746 4.30975 8.19036C4.31062 6.01037 6.08434 4.23682 8.26528 4.23682C9.32135 4.23718 10.3141 4.64897 11.0606 5.39633C11.8071 6.1437 12.2179 7.13707 12.2175 8.19356C12.2167 10.3737 10.443 12.1475 8.26372 12.1475H8.26212C7.55263 12.1472 6.85676 11.9566 6.2497 11.5963ZM10.4975 9.21802C10.5804 9.25809 10.6364 9.28514 10.6603 9.32505C10.69 9.37461 10.69 9.61259 10.591 9.89029C10.4919 10.1679 10.017 10.4213 9.78864 10.4554C9.58387 10.4861 9.32473 10.4988 9.03999 10.4083C8.86735 10.3536 8.64597 10.2804 8.36238 10.158C7.24807 9.67681 6.49502 8.5968 6.3527 8.39268C6.34273 8.37838 6.33575 8.36838 6.33186 8.36318L6.3309 8.36191C6.268 8.27798 5.84652 7.71562 5.84652 7.13359C5.84652 6.58608 6.11546 6.29911 6.23926 6.16701C6.24774 6.15796 6.25554 6.14964 6.26253 6.14201C6.37148 6.02301 6.50026 5.99326 6.57949 5.99326C6.65872 5.99326 6.73805 5.99399 6.8073 5.99747C6.81585 5.9979 6.82474 5.99784 6.83393 5.99779C6.90319 5.99738 6.98955 5.99688 7.07474 6.20151C7.10751 6.28026 7.15547 6.39702 7.20605 6.52016C7.30833 6.76916 7.42133 7.04426 7.44121 7.08407C7.47093 7.14357 7.49074 7.21296 7.45112 7.29232C7.44517 7.30422 7.43967 7.31545 7.43442 7.32618C7.40466 7.38693 7.38277 7.43162 7.33226 7.49059C7.3124 7.51378 7.29188 7.53878 7.27135 7.56378C7.23046 7.61358 7.18957 7.66337 7.15396 7.69884C7.09446 7.75812 7.03252 7.82242 7.10185 7.94142C7.17119 8.06042 7.40974 8.44964 7.76309 8.76483C8.14294 9.10364 8.47307 9.24684 8.6404 9.31942C8.67308 9.33359 8.69955 9.34507 8.71897 9.35479C8.83779 9.41431 8.90713 9.40435 8.97647 9.32505C9.04581 9.24572 9.2736 8.97796 9.35283 8.85898C9.43205 8.74003 9.51133 8.75984 9.62026 8.79949C9.72923 8.83919 10.3136 9.12671 10.4325 9.1862C10.4557 9.19782 10.4774 9.2083 10.4975 9.21802Z" fill="white"/>
</svg>
