<svg width="24" height="24" viewBox="0 0 24 24" fill="none" xmlns="http://www.w3.org/2000/svg">
<path fill-rule="evenodd" clip-rule="evenodd" d="M24 12C24 18.6274 18.6274 24 12 24C5.37258 24 0 18.6274 0 12C0 5.37258 5.37258 0 12 0C18.6274 0 24 5.37258 24 12ZM12.3926 18.6763H12.3955C16.3297 18.6747 19.5295 15.4741 19.5311 11.5408C19.5318 9.63417 18.7903 7.84141 17.4431 6.49271C16.0959 5.14393 14.3043 4.40082 12.3955 4.4C8.46241 4.4 5.26139 7.60085 5.25982 11.5351C5.25929 12.7927 5.58787 14.0203 6.21231 15.1024L5.2 18.8L8.98267 17.8077C10.0249 18.3762 11.1984 18.6758 12.3926 18.6763Z" fill="#5F236B"/>
<path fill-rule="evenodd" clip-rule="evenodd" d="M9.37451 16.6442L9.15794 16.5157L6.91325 17.1045L7.5124 14.916L7.37138 14.6916C6.7777 13.7473 6.46414 12.6559 6.4646 11.5353C6.4659 8.26532 9.12647 5.60498 12.3979 5.60498C13.982 5.60553 15.4711 6.22321 16.5908 7.34426C17.7106 8.4653 18.3269 9.95537 18.3263 11.5401C18.325 14.8103 15.6644 17.4709 12.3955 17.4709H12.3931C11.3289 17.4705 10.2851 17.1846 9.37451 16.6442ZM15.7462 13.0768C15.8705 13.1369 15.9545 13.1775 15.9904 13.2373C16.0349 13.3117 16.0349 13.6686 15.8864 14.0852C15.7378 14.5016 15.0255 14.8818 14.6829 14.9329C14.3758 14.9789 13.9871 14.998 13.56 14.8623C13.301 14.7801 12.9689 14.6704 12.5435 14.4867C10.8721 13.765 9.7425 12.145 9.52902 11.8388C9.51406 11.8173 9.5036 11.8023 9.49776 11.7945L9.49632 11.7926C9.40197 11.6667 8.76975 10.8232 8.76975 9.95015C8.76975 9.12888 9.17316 8.69841 9.35886 8.50027C9.37158 8.48669 9.38328 8.47421 9.39376 8.46276C9.55718 8.28426 9.75036 8.23964 9.86921 8.23964C9.98806 8.23964 10.107 8.24074 10.2109 8.24595C10.2237 8.2466 10.2371 8.24652 10.2509 8.24644C10.3548 8.24583 10.4843 8.24507 10.6121 8.55201C10.6612 8.67014 10.7332 8.84527 10.809 9.02997C10.9625 9.40348 11.132 9.81615 11.1618 9.87586C11.2064 9.96512 11.2361 10.0692 11.1767 10.1882C11.1677 10.2061 11.1595 10.2229 11.1516 10.239C11.107 10.3302 11.0741 10.3972 10.9984 10.4856C10.9686 10.5204 10.9378 10.5579 10.907 10.5954C10.8457 10.6701 10.7843 10.7448 10.7309 10.798C10.6417 10.8869 10.5487 10.9834 10.6527 11.1619C10.7568 11.3404 11.1146 11.9242 11.6446 12.397C12.2144 12.9052 12.7096 13.12 12.9606 13.2289C13.0096 13.2501 13.0493 13.2674 13.0784 13.2819C13.2566 13.3712 13.3607 13.3563 13.4647 13.2373C13.5687 13.1183 13.9104 12.7167 14.0292 12.5382C14.148 12.3598 14.267 12.3895 14.4304 12.449C14.5938 12.5085 15.4704 12.9398 15.6487 13.0291C15.6835 13.0465 15.716 13.0622 15.7462 13.0768Z" fill="#5F236B"/>
</svg>
