<svg width="14" height="13" viewBox="0 0 14 13" fill="none" xmlns="http://www.w3.org/2000/svg">
<path fill-rule="evenodd" clip-rule="evenodd" d="M7 -4.65341e-05C7.27614 -4.65552e-05 7.5 0.223811 7.5 0.499953L7.5 5.99998L13 5.99998C13.2762 5.99998 13.5 6.22383 13.5 6.49998C13.5 6.77612 13.2762 6.99998 13 6.99998L7.5 6.99998L7.5 12.5C7.5 12.7761 7.27614 13 7 13C6.72386 13 6.5 12.7761 6.5 12.5L6.5 6.99998L0.999977 6.99998C0.723835 6.99998 0.499977 6.77612 0.499977 6.49998C0.499978 6.22383 0.723835 5.99998 0.999978 5.99998L6.5 5.99998L6.5 0.499953C6.5 0.223811 6.72386 -4.65552e-05 7 -4.65341e-05Z" fill="#919399"/>
</svg>
