<svg width="24" height="24" viewBox="0 0 24 24" fill="none" xmlns="http://www.w3.org/2000/svg">
<path fill-rule="evenodd" clip-rule="evenodd" d="M24 12C24 18.6274 18.6274 24 12 24C5.37258 24 0 18.6274 0 12C0 5.37258 5.37258 0 12 0C18.6274 0 24 5.37258 24 12ZM12.3926 18.6763H12.3955C16.3297 18.6747 19.5295 15.4741 19.5311 11.5408C19.5318 9.63417 18.7903 7.84141 17.4431 6.49271C16.0959 5.14393 14.3043 4.40082 12.3955 4.4C8.46241 4.4 5.26139 7.60085 5.25982 11.5351C5.25929 12.7927 5.58787 14.0203 6.21231 15.1024L5.2 18.8L8.98267 17.8077C10.0249 18.3762 11.1984 18.6758 12.3926 18.6763Z" fill="#5A4783"/>
<path fill-rule="evenodd" clip-rule="evenodd" d="M9.37451 16.6445L9.15794 16.5159L6.91325 17.1048L7.5124 14.9162L7.37138 14.6918C6.7777 13.7476 6.46414 12.6562 6.4646 11.5355C6.4659 8.26555 9.12647 5.60522 12.3979 5.60522C13.982 5.60577 15.4711 6.22344 16.5908 7.34449C17.7106 8.46554 18.3269 9.9556 18.3263 11.5403C18.325 14.8106 15.6644 17.4712 12.3955 17.4712H12.3931C11.3289 17.4708 10.2851 17.1848 9.37451 16.6445ZM15.7462 13.077C15.8705 13.1371 15.9545 13.1777 15.9904 13.2376C16.0349 13.3119 16.0349 13.6689 15.8864 14.0854C15.7378 14.5019 15.0255 14.882 14.6829 14.9332C14.3758 14.9791 13.9871 14.9982 13.56 14.8625C13.301 14.7804 12.9689 14.6707 12.5435 14.4869C10.8721 13.7652 9.7425 12.1452 9.52902 11.839C9.51406 11.8176 9.5036 11.8026 9.49776 11.7948L9.49632 11.7929C9.40197 11.667 8.76975 10.8234 8.76975 9.95039C8.76975 9.12912 9.17316 8.69865 9.35886 8.50051C9.37158 8.48693 9.38328 8.47445 9.39376 8.463C9.55718 8.2845 9.75036 8.23988 9.86921 8.23988C9.98806 8.23988 10.107 8.24097 10.2109 8.24619C10.2237 8.24683 10.2371 8.24676 10.2509 8.24668C10.3548 8.24607 10.4843 8.24531 10.6121 8.55225C10.6612 8.67038 10.7332 8.8455 10.809 9.03021C10.9625 9.40371 11.132 9.81638 11.1618 9.8761C11.2064 9.96535 11.2361 10.0694 11.1767 10.1885C11.1677 10.2063 11.1595 10.2232 11.1516 10.2393C11.107 10.3304 11.0741 10.3974 10.9984 10.4859C10.9686 10.5207 10.9378 10.5582 10.907 10.5957C10.8457 10.6704 10.7843 10.7451 10.7309 10.7983C10.6417 10.8872 10.5487 10.9836 10.6527 11.1621C10.7568 11.3406 11.1146 11.9245 11.6446 12.3972C12.2144 12.9054 12.7096 13.1202 12.9606 13.2291C13.0096 13.2504 13.0493 13.2676 13.0784 13.2822C13.2566 13.3715 13.3607 13.3565 13.4647 13.2376C13.5687 13.1186 13.9104 12.7169 14.0292 12.5385C14.148 12.36 14.267 12.3898 14.4304 12.4492C14.5938 12.5088 15.4704 12.9401 15.6487 13.0293C15.6835 13.0467 15.716 13.0624 15.7462 13.077Z" fill="#5A4783"/>
</svg>
