<svg width="177" height="62" viewBox="0 0 177 62" fill="none" xmlns="http://www.w3.org/2000/svg">
<g clip-path="url(#clip0_110_260)">
<path d="M0.809631 61.3134V31.352H7.58552C7.58552 31.352 10.3305 31.9994 10.8111 33.2987C11.2441 34.4415 16.6258 48.438 17.8901 51.7188C17.9087 51.7725 17.9435 51.819 17.9896 51.852C18.0358 51.8849 18.091 51.9026 18.1477 51.9026C18.2043 51.9026 18.2595 51.8849 18.3057 51.852C18.3519 51.819 18.3867 51.7725 18.4053 51.7188L24.8478 33.9549C24.8478 33.9549 25.9778 31.3476 27.5928 31.3476H34.5202V61.3091C34.5202 61.3091 30.6712 62.2998 29.6407 59.2016V38.0743L20.7 60.553C20.5955 60.8188 20.4136 61.0468 20.178 61.2073C19.9425 61.3677 19.6642 61.4532 19.3795 61.4525H17.1021C16.8249 61.4497 16.5545 61.366 16.3239 61.2117C16.0933 61.0574 15.9124 60.8391 15.8032 60.5834L6.40353 37.5919L6.32559 59.5318C6.32559 59.5318 6.32559 62.2086 0.839939 61.3178" fill="#5A4783"/>
<path d="M50.9469 62C44.7815 62 39.5729 57.0506 39.5729 51.1887C39.5729 45.3267 44.7685 40.3817 50.9469 40.3817C53.7659 40.4384 56.4503 41.6022 58.424 43.6231C60.3976 45.644 61.5031 48.361 61.5031 51.1908C61.5031 54.0206 60.3976 56.7377 58.424 58.7586C56.4503 60.7795 53.7659 61.9433 50.9469 62ZM50.9469 45.2398C47.5265 45.2398 44.4134 48.0774 44.4134 51.1887C44.4134 54.3 47.5265 57.1419 50.9469 57.1419C51.739 57.1633 52.5274 57.0253 53.2655 56.7359C54.0036 56.4465 54.6765 56.0116 55.2444 55.4569C55.8122 54.9021 56.2636 54.2388 56.5717 53.5061C56.8799 52.7734 57.0387 51.9862 57.0387 51.1908C57.0387 50.3955 56.8799 49.6083 56.5717 48.8756C56.2636 48.1429 55.8122 47.4796 55.2444 46.9248C54.6765 46.3701 54.0036 45.9352 53.2655 45.6458C52.5274 45.3564 51.739 45.2184 50.9469 45.2398Z" fill="#5A4783"/>
<path d="M98.1398 62C91.9744 62 86.7659 57.0506 86.7659 51.1887C86.7659 45.3267 91.9614 40.3817 98.1398 40.3817C99.5723 40.3529 100.996 40.6111 102.328 41.1414C103.66 41.6717 104.873 42.4632 105.896 43.4698C106.919 44.4764 107.732 45.6778 108.287 47.0035C108.842 48.3293 109.128 49.7528 109.128 51.1908C109.128 52.6288 108.842 54.0524 108.287 55.3782C107.732 56.7039 106.919 57.9053 105.896 58.9119C104.873 59.9184 103.66 60.71 102.328 61.2403C100.996 61.7706 99.5723 62.0288 98.1398 62ZM98.1398 45.2398C94.7237 45.2398 91.6064 48.0774 91.6064 51.1887C91.6064 54.3 94.7237 57.1418 98.1398 57.1418C98.932 57.1633 99.7204 57.0253 100.459 56.7359C101.197 56.4465 101.869 56.0116 102.437 55.4569C103.005 54.9021 103.457 54.2388 103.765 53.5061C104.073 52.7734 104.232 51.9862 104.232 51.1908C104.232 50.3955 104.073 49.6083 103.765 48.8756C103.457 48.1429 103.005 47.4796 102.437 46.9248C101.869 46.3701 101.197 45.9352 100.459 45.6458C99.7204 45.3564 98.932 45.2184 98.1398 45.2398Z" fill="#5A4783"/>
<path d="M62.1217 61.4916L71.7897 40.3817H76.2276L86.2291 61.4916H81.9557C81.9557 61.4916 80.4187 61.4916 79.7909 60.188C79.1631 58.8844 74.1624 48.2034 74.1624 48.2034L68.6378 60.188C68.6378 60.188 67.7718 61.3612 66.8626 61.4916C65.9534 61.6219 62.1 61.4916 62.1 61.4916" fill="#5A4783"/>
<path d="M117.32 45.3007H111.328V40.3817H128.573V45.3007H122.646V61.5568H117.381L117.32 45.3007Z" fill="#5A4783"/>
<path d="M138.033 40.3817H133.275V61.5568H138.033V40.3817Z" fill="#5A4783"/>
<path d="M151.75 40.3817H147.091C146.809 40.3813 146.532 40.4481 146.281 40.5765C146.03 40.7049 145.814 40.8914 145.649 41.1204L138.722 50.6803C138.658 50.767 138.623 50.8721 138.623 50.9801C138.623 51.088 138.658 51.1931 138.722 51.2799L145.87 60.8398C146.035 61.0627 146.25 61.2437 146.497 61.3682C146.745 61.4927 147.018 61.5573 147.294 61.5568H151.728L144.528 51.2582C144.469 51.1735 144.437 51.0726 144.437 50.9692C144.437 50.8659 144.469 50.765 144.528 50.6803L151.75 40.3817Z" fill="#5A4783"/>
<path d="M156.833 40.3817H161.348V53.7742C161.349 53.8367 161.369 53.8975 161.406 53.9481C161.443 53.9986 161.494 54.0363 161.553 54.056C161.613 54.0756 161.676 54.0762 161.736 54.0576C161.795 54.039 161.848 54.0022 161.885 53.9523L171.112 41.6375C171.112 41.6375 172.242 40.4208 173.367 40.3817C174.493 40.3426 177 40.3817 177 40.3817V61.5568H171.597V50.3239C171.597 50.2493 171.573 50.1766 171.529 50.1163C171.485 50.056 171.424 50.0112 171.353 49.9885C171.282 49.9658 171.206 49.9662 171.135 49.9898C171.065 50.0134 171.003 50.0589 170.96 50.1197L163.262 60.6964C163.071 60.9644 162.819 61.183 162.527 61.3341C162.234 61.4852 161.911 61.5645 161.582 61.5654H156.82L156.833 40.3817Z" fill="#5A4783"/>
<path d="M34.7328 12.871H34.5034C33.9108 10.3165 32.7205 7.94036 31.031 5.93938C29.3414 3.93839 27.2012 2.37013 24.7876 1.36445V6.83964C24.7876 7.15081 24.6645 7.44923 24.4452 7.66926C24.226 7.88929 23.9287 8.01289 23.6186 8.01289C23.3086 8.01289 23.0113 7.88929 22.792 7.66926C22.5728 7.44923 22.4496 7.15081 22.4496 6.83964V0.556204C21.0302 0.18533 19.5694 -0.00159271 18.1027 -5.23213e-06C16.678 0.00101935 15.2588 0.177607 13.8769 0.52579V6.83964C13.8769 7.15081 13.7538 7.44923 13.5345 7.66926C13.3153 7.88929 13.018 8.01289 12.7079 8.01289C12.3979 8.01289 12.1006 7.88929 11.8813 7.66926C11.6621 7.44923 11.5389 7.15081 11.5389 6.83964V1.3123C9.09503 2.3061 6.92493 3.87489 5.21148 5.88648C3.49802 7.89807 2.29142 10.2935 1.69333 12.871H1.58509C1.19048 12.87 0.809911 13.0179 0.518997 13.2855C0.228083 13.5531 0.0481123 13.9208 0.0148449 14.3154C-0.0184226 14.7101 0.0974455 15.1028 0.339429 15.4157C0.581413 15.7285 0.931803 15.9386 1.32098 16.0041C1.40824 16.0194 1.49653 16.0281 1.58509 16.0301H34.7415H34.8844C35.2831 15.9883 35.6508 15.7951 35.9122 15.4901C36.1737 15.1852 36.3092 14.7914 36.2909 14.3895C36.2727 13.9876 36.1021 13.6078 35.814 13.328C35.526 13.0482 35.1423 12.8893 34.7415 12.8841" fill="#DC7E44"/>
<path d="M28.2683 17.7509C27.2352 19.5711 25.7404 21.0844 23.9358 22.1371C22.1313 23.1898 20.0812 23.7443 17.994 23.7443C15.9068 23.7443 13.8568 23.1898 12.0522 22.1371C10.2477 21.0844 8.75289 19.5711 7.71979 17.7509H1.45047C3.57199 24.5775 10.179 29.5704 17.994 29.5704C25.809 29.5704 32.4161 24.5775 34.5376 17.7509H28.2683Z" fill="#5A4783"/>
<path d="M41.9152 37.9961V30.8696H44.513C45.9721 30.8696 46.7038 31.9256 46.7038 33.1423C46.7038 34.359 45.9721 35.4193 44.513 35.4193H43.318V37.9961H41.9152ZM45.2707 33.1423C45.2861 33.0144 45.2742 32.8847 45.2356 32.7619C45.197 32.6391 45.1327 32.5259 45.0471 32.4301C44.9614 32.3342 44.8563 32.2578 44.7388 32.206C44.6213 32.1542 44.4941 32.1282 44.3658 32.1298H43.344V34.1591H44.3658C44.4943 34.16 44.6216 34.1335 44.739 34.0812C44.8565 34.0289 44.9616 33.9521 45.0472 33.8559C45.1328 33.7597 45.197 33.6463 45.2356 33.5233C45.2741 33.4002 45.2861 33.2703 45.2707 33.1423Z" fill="#5A4783"/>
<path d="M47.9639 37.9961V30.8696H52.0337V32.1298H49.3927V33.7419H51.9558V35.0064H49.3927V36.7359H52.0337V37.9961H47.9639Z" fill="#5A4783"/>
<path d="M57.8483 30.8653V32.1298H54.9042V33.4725H56.1078C57.5669 33.4725 58.2726 34.5241 58.2726 35.7278C58.2726 36.9314 57.5496 37.9961 56.1078 37.9961H53.4754V30.8653H57.8483ZM54.9042 34.737V36.7359H55.9389C56.187 36.7127 56.4175 36.5973 56.5853 36.4125C56.7531 36.2276 56.8461 35.9865 56.8461 35.7365C56.8461 35.4864 56.7531 35.2453 56.5853 35.0605C56.4175 34.8756 56.187 34.7603 55.9389 34.737H54.9042Z" fill="#5A4783"/>
<path d="M59.2944 37.9961L60.5933 35.1629C60.0175 34.9717 59.355 34.3503 59.355 33.1205C59.3356 32.8263 59.3776 32.5313 59.4784 32.2544C59.5793 31.9775 59.7366 31.7247 59.9404 31.5124C60.1443 31.3 60.39 31.1328 60.662 31.0214C60.934 30.9099 61.2262 30.8568 61.5198 30.8653H64.1696V37.9961H62.7451V35.4193H61.9788L60.892 37.9961H59.2944ZM62.7581 34.1591V32.1298H61.745C61.4966 32.1581 61.2673 32.2772 61.1008 32.4643C60.9343 32.6515 60.8423 32.8936 60.8423 33.1444C60.8423 33.3953 60.9343 33.6374 61.1008 33.8246C61.2673 34.0117 61.4966 34.1308 61.745 34.1591H62.7581Z" fill="#5A4783"/>
<path d="M66.9925 37.9961V32.1298H65.4165V30.8696H69.9973V32.1298H68.4213V37.9961H66.9925Z" fill="#5A4783"/>
<path d="M74.9807 37.9961L74.6516 36.7359H72.4868L72.1534 37.9961H70.6121L72.7206 30.8653H74.4525L76.5524 37.9961H74.9807ZM73.5649 32.3731L72.7553 35.4757H74.3875L73.5649 32.3731Z" fill="#5A4783"/>
</g>
<defs>
<clipPath id="clip0_110_260">
<rect width="177" height="62" fill="white"/>
</clipPath>
</defs>
</svg>
