<svg width="177" height="62" viewBox="0 0 177 62" fill="none" xmlns="http://www.w3.org/2000/svg">
<g clip-path="url(#clip0_224_1757)">
<path d="M0.80957 61.3134V31.352H7.58546C7.58546 31.352 10.3305 31.9994 10.811 33.2987C11.244 34.4415 16.6257 48.438 17.89 51.7188C17.9086 51.7725 17.9434 51.819 17.9896 51.852C18.0357 51.8849 18.091 51.9026 18.1476 51.9026C18.2042 51.9026 18.2595 51.8849 18.3056 51.852C18.3518 51.819 18.3866 51.7725 18.4052 51.7188L24.8477 33.9549C24.8477 33.9549 25.9778 31.3476 27.5927 31.3476H34.5201V61.3091C34.5201 61.3091 30.6711 62.2998 29.6406 59.2016V38.0743L20.6999 60.553C20.5955 60.8188 20.4136 61.0468 20.178 61.2073C19.9424 61.3677 19.6641 61.4532 19.3794 61.4525H17.102C16.8248 61.4497 16.5545 61.366 16.3238 61.2117C16.0932 61.0574 15.9123 60.8391 15.8031 60.5834L6.40347 37.592L6.32553 59.5318C6.32553 59.5318 6.32553 62.2086 0.839878 61.3178" fill="white"/>
<path d="M50.9467 62C44.7813 62 39.5728 57.0506 39.5728 51.1887C39.5728 45.3267 44.7683 40.3817 50.9467 40.3817C53.7657 40.4384 56.4502 41.6022 58.4238 43.6231C60.3974 45.644 61.5029 48.361 61.5029 51.1908C61.5029 54.0206 60.3974 56.7377 58.4238 58.7586C56.4502 60.7795 53.7657 61.9433 50.9467 62ZM50.9467 45.2398C47.5263 45.2398 44.4133 48.0774 44.4133 51.1887C44.4133 54.3 47.5263 57.1419 50.9467 57.1419C51.7389 57.1633 52.5273 57.0253 53.2654 56.7359C54.0035 56.4465 54.6763 56.0116 55.2442 55.4569C55.8121 54.9021 56.2634 54.2388 56.5716 53.5061C56.8798 52.7734 57.0386 51.9862 57.0386 51.1908C57.0386 50.3955 56.8798 49.6083 56.5716 48.8756C56.2634 48.1429 55.8121 47.4796 55.2442 46.9248C54.6763 46.3701 54.0035 45.9352 53.2654 45.6458C52.5273 45.3564 51.7389 45.2184 50.9467 45.2398Z" fill="white"/>
<path d="M98.1396 62C91.9742 62 86.7656 57.0506 86.7656 51.1887C86.7656 45.3267 91.9612 40.3817 98.1396 40.3817C99.5721 40.3529 100.996 40.6111 102.328 41.1414C103.66 41.6717 104.873 42.4632 105.896 43.4698C106.919 44.4764 107.732 45.6778 108.287 47.0035C108.842 48.3293 109.128 49.7528 109.128 51.1908C109.128 52.6288 108.842 54.0524 108.287 55.3782C107.732 56.7039 106.919 57.9053 105.896 58.9119C104.873 59.9184 103.66 60.71 102.328 61.2403C100.996 61.7706 99.5721 62.0288 98.1396 62ZM98.1396 45.2398C94.7235 45.2398 91.6062 48.0774 91.6062 51.1887C91.6062 54.3 94.7235 57.1418 98.1396 57.1418C98.9317 57.1633 99.7201 57.0253 100.458 56.7359C101.196 56.4465 101.869 56.0116 102.437 55.4569C103.005 54.9021 103.456 54.2388 103.764 53.5061C104.073 52.7734 104.231 51.9862 104.231 51.1908C104.231 50.3955 104.073 49.6083 103.764 48.8756C103.456 48.1429 103.005 47.4796 102.437 46.9248C101.869 46.3701 101.196 45.9352 100.458 45.6458C99.7201 45.3564 98.9317 45.2184 98.1396 45.2398Z" fill="white"/>
<path d="M62.1217 61.4916L71.7898 40.3817H76.2277L86.2292 61.4916H81.9558C81.9558 61.4916 80.4188 61.4916 79.791 60.188C79.1632 58.8844 74.1625 48.2034 74.1625 48.2034L68.6379 60.188C68.6379 60.188 67.7719 61.3612 66.8627 61.4916C65.9535 61.6219 62.1001 61.4916 62.1001 61.4916" fill="white"/>
<path d="M117.32 45.3007H111.328V40.3817H128.573V45.3007H122.646V61.5568H117.381L117.32 45.3007Z" fill="white"/>
<path d="M138.033 40.3817H133.275V61.5568H138.033V40.3817Z" fill="white"/>
<path d="M151.749 40.3817H147.091C146.809 40.3813 146.532 40.4481 146.281 40.5765C146.03 40.7049 145.814 40.8914 145.649 41.1204L138.722 50.6803C138.658 50.767 138.623 50.8721 138.623 50.9801C138.623 51.088 138.658 51.1931 138.722 51.2799L145.87 60.8398C146.035 61.0627 146.25 61.2437 146.497 61.3682C146.745 61.4927 147.018 61.5573 147.294 61.5568H151.728L144.528 51.2582C144.469 51.1735 144.437 51.0726 144.437 50.9692C144.437 50.8659 144.469 50.765 144.528 50.6803L151.749 40.3817Z" fill="white"/>
<path d="M156.832 40.3817H161.348V53.7742C161.349 53.8367 161.369 53.8975 161.406 53.9481C161.442 53.9986 161.494 54.0363 161.553 54.056C161.612 54.0756 161.676 54.0762 161.736 54.0576C161.795 54.039 161.847 54.0022 161.885 53.9523L171.111 41.6375C171.111 41.6375 172.241 40.4208 173.367 40.3817C174.493 40.3426 177 40.3817 177 40.3817V61.5568H171.596V50.3239C171.596 50.2493 171.573 50.1766 171.529 50.1163C171.485 50.056 171.423 50.0112 171.352 49.9885C171.282 49.9658 171.205 49.9662 171.135 49.9898C171.064 50.0134 171.003 50.0589 170.96 50.1197L163.262 60.6964C163.07 60.9644 162.818 61.183 162.526 61.3341C162.234 61.4852 161.911 61.5645 161.582 61.5654H156.819L156.832 40.3817Z" fill="white"/>
<path d="M34.7329 12.871H34.5034C33.9109 10.3165 32.7206 7.94036 31.031 5.93937C29.3414 3.93839 27.2013 2.37013 24.7877 1.36444V6.83964C24.7877 7.15081 24.6645 7.44923 24.4453 7.66926C24.226 7.88928 23.9287 8.01289 23.6187 8.01289C23.3086 8.01289 23.0113 7.88928 22.7921 7.66926C22.5728 7.44923 22.4497 7.15081 22.4497 6.83964V0.556202C21.0303 0.185328 19.5694 -0.00159462 18.1027 -7.13948e-06C16.678 0.00101744 15.2588 0.177605 13.877 0.525788V6.83964C13.877 7.15081 13.7538 7.44923 13.5346 7.66926C13.3153 7.88928 13.018 8.01289 12.708 8.01289C12.3979 8.01289 12.1006 7.88928 11.8814 7.66926C11.6621 7.44923 11.539 7.15081 11.539 6.83964V1.3123C9.09506 2.3061 6.92496 3.87488 5.21151 5.88648C3.49805 7.89807 2.29145 10.2935 1.69336 12.871H1.58512C1.19051 12.87 0.809942 13.0179 0.519028 13.2855C0.228114 13.5531 0.0481429 13.9208 0.0148754 14.3154C-0.0183921 14.7101 0.097476 15.1028 0.33946 15.4157C0.581443 15.7285 0.931834 15.9386 1.32101 16.0041C1.40827 16.0194 1.49656 16.0281 1.58512 16.0301H34.7415H34.8844C35.2831 15.9883 35.6508 15.7951 35.9123 15.4901C36.1737 15.1852 36.3092 14.7914 36.291 14.3895C36.2727 13.9876 36.1021 13.6078 35.8141 13.328C35.526 13.0481 35.1424 12.8893 34.7415 12.8841" fill="#DC7E44"/>
<path d="M28.2685 17.7509C27.2354 19.5711 25.7406 21.0844 23.936 22.1371C22.1315 23.1898 20.0815 23.7443 17.9942 23.7443C15.907 23.7443 13.857 23.1898 12.0524 22.1371C10.2479 21.0844 8.7531 19.5711 7.72 17.7509H1.45068C3.57221 24.5775 10.1792 29.5704 17.9942 29.5704C25.8092 29.5704 32.4163 24.5775 34.5378 17.7509H28.2685Z" fill="white"/>
<path d="M41.915 37.9961V30.8696H44.5128C45.9719 30.8696 46.7036 31.9256 46.7036 33.1423C46.7036 34.359 45.9719 35.4193 44.5128 35.4193H43.3178V37.9961H41.915ZM45.2705 33.1423C45.2859 33.0144 45.274 32.8847 45.2354 32.7619C45.1968 32.6391 45.1326 32.5259 45.0469 32.4301C44.9612 32.3342 44.8561 32.2578 44.7386 32.206C44.6211 32.1542 44.4939 32.1282 44.3656 32.1298H43.3438V34.1591H44.3656C44.4941 34.16 44.6214 34.1335 44.7389 34.0812C44.8564 34.0289 44.9614 33.9521 45.047 33.8559C45.1326 33.7597 45.1968 33.6463 45.2354 33.5233C45.2739 33.4002 45.2859 33.2703 45.2705 33.1423Z" fill="white"/>
<path d="M47.9639 37.9961V30.8696H52.0337V32.1298H49.3927V33.7419H51.9558V35.0064H49.3927V36.7359H52.0337V37.9961H47.9639Z" fill="white"/>
<path d="M57.8485 30.8653V32.1298H54.9044V33.4725H56.108C57.5671 33.4725 58.2728 34.5241 58.2728 35.7278C58.2728 36.9314 57.5498 37.9961 56.108 37.9961H53.4756V30.8653H57.8485ZM54.9044 34.737V36.7359H55.9391C56.1872 36.7127 56.4177 36.5973 56.5855 36.4125C56.7533 36.2276 56.8463 35.9865 56.8463 35.7365C56.8463 35.4864 56.7533 35.2453 56.5855 35.0605C56.4177 34.8756 56.1872 34.7603 55.9391 34.737H54.9044Z" fill="white"/>
<path d="M59.2944 37.9961L60.5933 35.1629C60.0175 34.9717 59.355 34.3503 59.355 33.1205C59.3356 32.8263 59.3777 32.5313 59.4785 32.2544C59.5793 31.9775 59.7367 31.7247 59.9405 31.5124C60.1443 31.3 60.3901 31.1328 60.6621 31.0214C60.934 30.9099 61.2262 30.8568 61.5199 30.8653H64.1696V37.9961H62.7452V35.4193H61.9788L60.8921 37.9961H59.2944ZM62.7581 34.1591V32.1298H61.745C61.4966 32.1581 61.2673 32.2772 61.1008 32.4643C60.9343 32.6515 60.8423 32.8936 60.8423 33.1444C60.8423 33.3953 60.9343 33.6374 61.1008 33.8246C61.2673 34.0117 61.4966 34.1308 61.745 34.1591H62.7581Z" fill="white"/>
<path d="M66.9925 37.9961V32.1298H65.4165V30.8696H69.9973V32.1298H68.4213V37.9961H66.9925Z" fill="white"/>
<path d="M74.9809 37.9961L74.6519 36.7359H72.487L72.1537 37.9961H70.6123L72.7208 30.8653H74.4527L76.5526 37.9961H74.9809ZM73.5651 32.3731L72.7555 35.4757H74.3878L73.5651 32.3731Z" fill="white"/>
</g>
<defs>
<clipPath id="clip0_224_1757">
<rect width="177" height="62" fill="white"/>
</clipPath>
</defs>
</svg>
